<?xml version="1.0" encoding="utf-8"?>
<svg version="1.1" id="Layer_1" xmlns="http://www.w3.org/2000/svg" xmlns:xlink="http://www.w3.org/1999/xlink" x="0px" y="0px"
	 viewBox="0 0 1637.708 1640.234" enable-background="new 0 0 1637.708 1640.234" xml:space="preserve">
<g>
	<g>
		<g>
			<path fill="#3363FF" d="M1535.692,860.802c0.317-4.276,0.99-8.391,2.271-12.278c1.247-3.887,3.054-7.551,5.185-10.93
				c4.212-6.753,10.145-12.375,17.15-16.192l-174.643-0.298c0,0-0.051,3.912-0.129,9.779c-0.028,1.466-0.009,3.057-0.075,4.736
				c-0.066,1.678-0.136,3.447-0.208,5.278c-0.069,1.831-0.139,3.722-0.211,5.644c-0.035,0.961-0.071,1.93-0.106,2.902
				c-0.063,0.97-0.127,1.944-0.191,2.918c-0.245,3.897-0.49,7.793-0.719,11.446c-0.326,3.643-0.63,7.043-0.891,9.957
				c-0.127,1.457-0.243,2.794-0.346,3.978c-0.11,1.183-0.25,2.21-0.342,3.057c-0.196,1.694-0.307,2.663-0.307,2.663l173.578,19.26
				c-3.244-2.287-6.155-4.995-8.69-8.027c-2.59-3.038-4.796-6.399-6.546-9.997c-0.875-1.799-1.636-3.658-2.273-5.567
				c-0.637-1.909-1.138-3.867-1.586-5.872C1535.755,869.254,1535.422,865.08,1535.692,860.802z"/>
			<path fill="#BD01FB" d="M1575.551,904.925c-5.289-0.588-10.196-2.308-14.547-4.859c-2.176-1.276-4.21-2.761-6.088-4.421
				c-1.91-1.663-3.662-3.502-5.236-5.485c-3.148-3.968-5.578-8.51-7.103-13.416c-1.6-4.912-2.373-10.194-2.02-15.669
				c0.083-1.369,0.245-2.718,0.447-4.045c0.183-1.328,0.429-2.635,0.735-3.917c0.612-2.564,1.464-5.031,2.529-7.382
				c1.065-2.351,2.343-4.585,3.807-6.681c1.419-2.096,3.019-4.054,4.787-5.848c7.069-7.162,16.758-11.77,27.402-11.764
				c10.643,0.006,20.229,4.754,27.099,12.719c1.717,1.988,3.268,4.173,4.614,6.523c1.301,2.351,2.402,4.867,3.279,7.516
				c0.876,2.649,1.528,5.43,1.93,8.306c0.201,1.438,0.339,2.9,0.412,4.382c0.053,1.481,0.019,2.98-0.073,4.494
				c-0.386,6.055-1.804,11.761-4.129,16.834c-2.4,5.071-5.628,9.512-9.45,13.089c-1.911,1.789-3.97,3.362-6.15,4.696
				c-2.211,1.331-4.541,2.421-6.955,3.25C1586.012,904.904,1580.84,905.512,1575.551,904.925z"/>
		</g>
		<g>
			<path fill="#494B51" d="M1526.149,944.173c0.703-4.232,1.968-8.224,3.708-11.937c0.886-1.854,1.835-3.646,2.879-5.363
				c1.052-1.716,2.213-3.355,3.471-4.911c2.517-3.111,5.424-5.887,8.633-8.262c3.164-2.38,6.604-4.361,10.282-5.855l-173.44-20.464
				c0,0-0.11,0.969-0.301,2.663c-0.164,1.699-0.505,4.11-0.921,7.003c-0.405,2.894-0.878,6.27-1.385,9.888
				c-0.598,3.602-1.236,7.444-1.874,11.286c-0.292,1.926-0.666,3.836-1.035,5.717c-0.361,1.882-0.716,3.734-1.06,5.526
				c-0.342,1.793-0.672,3.525-0.986,5.169c-0.358,1.633-0.697,3.178-1.01,4.603c-0.62,2.853-1.136,5.23-1.498,6.894
				c-0.179,0.832-0.32,1.486-0.416,1.932c-0.106,0.444-0.162,0.68-0.162,0.68l170.132,39.438
				c-5.93-5.312-10.461-12.153-13.035-19.696c-0.63-1.884-1.183-3.823-1.631-5.802c-0.438-1.977-0.749-3.989-0.924-6.027
				c-0.175-2.038-0.214-4.102-0.109-6.183c0.053-1.041,0.141-2.085,0.267-3.134C1525.839,946.287,1525.971,945.231,1526.149,944.173
				z"/>
			<path fill="#CDDD8D" d="M1560.614,992.689c-10.336-2.409-18.752-9.117-24.014-17.711c-1.317-2.152-2.437-4.427-3.341-6.793
				c-0.901-2.366-1.679-4.843-2.175-7.374c-0.507-2.534-0.78-5.133-0.798-7.773c-0.017-2.639,0.238-5.315,0.662-8.028
				c0.896-5.416,2.827-10.392,5.512-14.816c2.593-4.436,5.986-8.313,9.948-11.469c1.981-1.577,4.103-2.973,6.339-4.162
				c2.215-1.192,4.524-2.179,6.934-2.931c4.815-1.503,9.982-2.07,15.267-1.447c5.286,0.623,10.187,2.384,14.517,5.091
				c2.162,1.353,4.193,2.943,6.036,4.738c1.822,1.793,3.473,3.792,4.931,5.968c2.916,4.351,5.057,9.411,6.25,14.898
				c1.101,5.473,1.207,11.365,0.21,17.361c-0.474,3.002-1.312,5.867-2.353,8.586c-1.042,2.719-2.305,5.288-3.757,7.676
				c-1.464,2.386-3.068,4.602-4.918,6.593c-1.848,1.991-3.849,3.775-5.97,5.328C1581.396,992.648,1571.009,995.111,1560.614,992.689
				z"/>
		</g>
		<g>
			<path fill="#D115A1" d="M1506.882,1025.882c0.612-2.056,1.356-4.037,2.221-5.938c0.432-0.95,0.895-1.881,1.386-2.791
				c0.479-0.914,0.969-1.812,1.496-2.687c2.1-3.501,4.642-6.668,7.531-9.457c2.918-2.782,6.07-5.215,9.488-7.211
				c3.422-1.994,7.102-3.553,10.94-4.605l-169.852-40.629c0,0-0.921,3.781-2.303,9.452c-1.569,5.621-3.463,13.172-5.779,20.602
				c-0.552,1.865-1.104,3.73-1.648,5.567c-0.564,1.83-1.172,3.614-1.729,5.35c-1.143,3.464-2.143,6.718-3.1,9.475
				c-1.941,5.504-3.234,9.173-3.234,9.173l164.315,59.168c-2.636-2.986-4.864-6.309-6.638-9.856
				c-0.887-1.773-1.661-3.603-2.315-5.475c-0.645-1.87-1.189-3.788-1.648-5.752
				C1504.2,1042.418,1504.519,1034.129,1506.882,1025.882z"/>
			<path fill="#AF0BB9" d="M1535.399,1078.116c-10.01-3.618-17.532-11.254-21.713-20.395c-2.069-4.571-3.482-9.594-3.842-14.73
				c-0.192-2.572-0.138-5.18,0.165-7.8c0.251-2.636,0.758-5.283,1.541-7.915c0.783-2.632,1.805-5.125,3.037-7.468
				c1.248-2.339,2.577-4.564,4.159-6.607c3.124-4.096,6.998-7.537,11.301-10.208c8.492-5.356,18.96-7.618,29.315-5.154
				c10.354,2.464,18.607,9.318,23.486,18.693c2.386,4.666,3.869,9.934,4.38,15.521c0.236,2.787,0.295,5.672-0.041,8.556
				c-0.319,2.888-0.905,5.812-1.773,8.726c-0.867,2.915-1.975,5.682-3.287,8.274c-1.365,2.576-2.94,4.973-4.677,7.171
				c-3.498,4.389-7.566,8.002-12.185,10.573C1556.059,1080.524,1545.408,1081.733,1535.399,1078.116z"/>
		</g>
		<g>
			<path fill="#D92FF9" d="M1478.171,1104.771c0.852-1.968,1.856-3.834,2.918-5.628c1.047-1.801,2.207-3.507,3.465-5.118
				c2.514-3.223,5.438-6.057,8.64-8.485c6.278-4.901,13.784-8.15,21.676-9.333l-163.896-60.318c0,0-1.384,3.637-3.46,9.091
				c-0.994,2.745-2.327,5.879-3.701,9.259c-1.379,3.378-2.816,6.995-4.423,10.541c-0.78,1.783-1.56,3.566-2.327,5.321
				c-0.765,1.756-1.503,3.491-2.299,5.134c-1.544,3.307-2.984,6.394-4.22,9.039c-1.218,2.654-2.369,4.801-3.107,6.336
				c-0.758,1.526-1.191,2.397-1.191,2.397l156.234,78.045c-4.545-6.557-7.181-14.18-8.062-22.182
				c-0.411-3.989-0.314-8.044,0.338-12.071C1475.345,1112.746,1476.448,1108.7,1478.171,1104.771z"/>
			<path fill="#F99BD1" d="M1500.34,1159.976c-9.529-4.774-16.044-13.209-19.151-22.79c-1.596-4.819-2.323-9.932-2.077-15.073
				c0.061-1.286,0.186-2.572,0.367-3.86c0.159-1.298,0.38-2.595,0.666-3.886c0.571-2.583,1.398-5.146,2.497-7.662
				c2.248-5.01,5.167-9.45,8.789-13.135c1.807-1.844,3.774-3.506,5.868-4.973c2.094-1.467,4.24-2.77,6.527-3.845
				c9.102-4.305,19.788-5.313,29.78-1.648c9.992,3.664,17.358,11.432,21.063,21.302c0.917,2.46,1.649,5.065,2.062,7.727
				c0.412,2.662,0.58,5.412,0.491,8.21c-0.186,5.59-1.338,11.398-3.82,16.95c-1.217,2.786-2.655,5.398-4.274,7.812
				c-0.81,1.207-1.665,2.364-2.56,3.469c-0.917,1.095-1.883,2.134-2.879,3.121c-3.989,3.946-8.539,7.013-13.349,9.06
				C1520.62,1164.817,1509.843,1164.737,1500.34,1159.976z"/>
		</g>
		<g>
			<path fill="#FB4F6D" d="M1440.417,1179.741c1.107-1.837,2.26-3.607,3.516-5.269c1.259-1.661,2.617-3.215,4.063-4.663
				c2.884-2.9,6.162-5.347,9.549-7.425c6.815-4.126,14.737-6.425,22.636-6.712l-155.686-79.134c0,0-0.108,0.218-0.31,0.627
				c-0.202,0.409-0.494,1.012-0.9,1.761c-0.796,1.506-1.934,3.658-3.299,6.241c-0.68,1.292-1.417,2.693-2.195,4.174
				c-0.769,1.486-1.671,3.005-2.552,4.605c-0.891,1.594-1.811,3.241-2.747,4.915c-0.938,1.672-1.86,3.388-2.876,5.051
				c-1.982,3.355-3.964,6.71-5.822,9.855c-1.935,3.099-3.741,5.992-5.289,8.471c-0.773,1.241-1.48,2.378-2.108,3.386
				c-0.654,0.991-1.225,1.855-1.696,2.566c-0.939,1.424-1.475,2.237-1.475,2.237l146.047,95.762
				c-1.858-3.508-3.236-7.246-4.118-11.094c-0.915-3.87-1.375-7.876-1.303-11.875c0.034-2.001,0.197-4.004,0.493-5.995
				c0.299-1.989,0.729-3.968,1.241-5.958C1436.639,1187.305,1438.236,1183.434,1440.417,1179.741z"/>
			<path fill="#CF59E1" d="M1455.969,1237.136c-4.45-2.919-8.047-6.675-10.774-10.922c-1.363-2.124-2.508-4.371-3.43-6.701
				c-0.925-2.332-1.673-4.778-2.174-7.256c-1.01-4.964-1.121-10.117-0.261-15.184c0.791-5.111,2.505-10.166,5.301-14.89
				c5.448-9.517,14.059-16.08,23.582-19.327c4.788-1.601,9.864-2.326,14.934-2.058c5.064,0.267,10.079,1.504,14.832,3.919
				c4.736,2.406,8.758,5.77,11.858,9.793c3.095,4.02,5.313,8.723,6.563,13.827c2.568,10.226,0.971,21.956-5.077,32.509
				c-3.091,5.231-6.954,9.678-11.32,13.159c-4.436,3.439-9.325,5.941-14.353,7.403c-2.519,0.727-5.051,1.211-7.622,1.398
				c-2.574,0.185-5.143,0.105-7.67-0.248C1465.305,1241.854,1460.419,1240.055,1455.969,1237.136z"/>
		</g>
		<g>
			<path fill="#EBD7AF" d="M1394.179,1249.776c2.53-3.462,5.452-6.458,8.671-8.989c1.603-1.27,3.308-2.403,5.023-3.456
				c1.711-1.056,3.484-1.995,5.306-2.814c3.645-1.639,7.488-2.802,11.418-3.47c3.952-0.652,7.872-0.892,11.839-0.551
				l-145.379-96.774c0,0-2.101,3.284-5.476,8.062c-0.832,1.202-1.734,2.504-2.688,3.881c-0.949,1.381-1.948,2.838-3.044,4.301
				c-2.153,2.954-4.45,6.106-6.747,9.257c-2.374,3.094-4.748,6.189-6.974,9.09c-1.094,1.465-2.212,2.835-3.267,4.137
				c-1.052,1.305-2.046,2.539-2.964,3.677c-3.63,4.59-6.189,7.536-6.189,7.536l133.922,112.094
				c-1.448-3.708-2.329-7.537-2.818-11.51c-0.47-3.959-0.441-7.973,0.101-11.933c0.271-1.98,0.669-3.946,1.199-5.885
				c0.527-1.942,1.131-3.898,1.897-5.795C1389.525,1256.83,1391.572,1253.18,1394.179,1249.776z"/>
			<path fill="#59C7F9" d="M1402.94,1308.571c-8.165-6.85-12.507-16.524-13.389-26.623c-0.433-5.052,0.114-10.135,1.503-15.11
				c1.372-4.99,3.691-9.788,7.027-14.145c3.237-4.431,7.183-8.012,11.583-10.738c4.381-2.736,9.101-4.7,14.07-5.713
				c9.937-2.01,20.447-0.578,29.324,5.316c8.857,5.88,14.331,15.222,15.56,25.615c0.622,5.192,0.302,10.715-1.178,16.101
				c-1.496,5.373-4.038,10.691-7.626,15.59c-3.686,4.825-8.067,8.766-12.798,11.719c-4.75,2.94-9.953,4.808-15.109,5.677
				C1421.591,1318.018,1411.083,1315.403,1402.94,1308.571z"/>
		</g>
	</g>
	<g>
		<g>
			<path fill="#3B0D21" d="M1341.788,1312.091c2.922-3.137,6.182-5.766,9.684-7.901c3.441-2.189,7.118-3.889,10.941-5.091
				c7.686-2.364,15.744-2.946,23.554-1.375l-133.534-112.557c0,0-0.63,0.745-1.731,2.048c-0.55,0.652-1.219,1.445-1.985,2.353
				c-0.383,0.455-0.79,0.939-1.22,1.448c-0.443,0.498-0.909,1.022-1.396,1.568c-1.942,2.189-4.208,4.743-6.635,7.479
				c-2.434,2.73-5.144,5.54-7.784,8.412c-2.619,2.894-5.402,5.631-7.944,8.261c-1.276,1.31-2.51,2.577-3.68,3.778
				c-1.178,1.192-2.332,2.28-3.374,3.307c-4.188,4.089-6.979,6.815-6.979,6.815l120.454,126.456
				c-2.046-7.703-2.062-15.893-0.067-23.605c0.991-3.866,2.4-7.704,4.363-11.284
				C1336.409,1318.611,1338.895,1315.256,1341.788,1312.091z"/>
			<path fill="#E11BDB" d="M1343.93,1371.548c-7.322-7.704-10.659-17.92-10.332-27.986c0.083-2.519,0.398-5.033,0.944-7.504
				c0.517-2.5,1.255-4.969,2.229-7.359c1.925-4.802,4.865-9.216,8.565-13.269c1.87-2.008,3.892-3.784,6.034-5.333
				c2.145-1.546,4.413-2.862,6.706-4.009c4.619-2.263,9.597-3.622,14.649-4.065c10.037-0.928,20.348,1.706,28.509,8.568
				c8.131,6.838,12.489,16.71,12.602,27.226c0.032,5.226-0.974,10.616-3.008,15.838c-1,2.626-2.321,5.15-3.892,7.59
				c-1.568,2.442-3.391,4.795-5.46,7.015c-4.099,4.479-8.991,7.808-14.024,10.207c-2.528,1.189-5.11,2.129-7.717,2.801
				c-2.636,0.643-5.287,1.03-7.912,1.157C1361.309,1382.94,1351.272,1379.274,1343.93,1371.548z"/>
		</g>
		<g>
			<path fill="#5DFBFB" d="M1280.832,1369.741c3.261-2.784,6.855-4.958,10.528-6.732c3.674-1.773,7.534-3.023,11.476-3.767
				c1.967-0.377,3.974-0.606,5.951-0.749c1.975-0.146,3.958-0.164,5.935-0.057c3.953,0.216,7.883,0.938,11.666,2.169
				l-119.577-127.285c0,0-2.856,2.658-7.141,6.645c-4.396,3.863-10.166,9.12-16.183,14.089c-1.49,1.259-2.98,2.518-4.446,3.757
				c-1.497,1.202-2.97,2.385-4.395,3.531c-1.424,1.148-2.799,2.257-4.104,3.309c-0.652,0.526-1.287,1.038-1.901,1.533
				c-0.626,0.478-1.232,0.941-1.813,1.385c-4.642,3.56-7.737,5.934-7.737,5.934l104.961,139.583
				c-1.144-7.898-0.178-15.995,2.689-23.436c1.398-3.769,3.279-7.372,5.643-10.703c1.178-1.67,2.493-3.254,3.901-4.792
				C1277.68,1372.601,1279.195,1371.125,1280.832,1369.741z"/>
			<path fill="#0FC9F9" d="M1276.053,1429.043c-6.387-8.514-8.501-19.03-6.997-28.976c0.783-4.945,2.369-9.9,4.869-14.407
				c1.248-2.257,2.717-4.413,4.407-6.436c1.684-2.03,3.535-3.992,5.637-5.755c8.437-7.004,18.601-10.434,28.775-10.123
				c10.035,0.196,20.019,4.062,27.316,11.811c7.296,7.749,10.43,18.005,9.365,28.51c-1.165,10.354-6.476,21.018-15.824,28.787
				c-2.325,1.951-4.741,3.682-7.285,5.089c-2.55,1.4-5.174,2.544-7.827,3.428c-5.311,1.762-10.701,2.528-15.978,2.131
				C1291.998,1442.382,1282.439,1437.557,1276.053,1429.043z"/>
		</g>
		<g>
			<path fill="#4B1177" d="M1213.592,1419.935c7.209-4.645,15.053-7.334,23.09-7.858c7.974-0.598,15.984,0.738,23.235,4.085
				l-103.992-140.307c0,0-3.15,2.298-7.876,5.746c-2.36,1.727-5.202,3.617-8.194,5.716c-1.505,1.036-3.043,2.133-4.635,3.205
				c-1.604,1.053-3.233,2.123-4.863,3.192c-3.257,2.142-6.491,4.32-9.617,6.212c-3.1,1.933-5.994,3.738-8.474,5.284
				c-5.033,2.971-8.388,4.953-8.388,4.953l87.985,150.86c-0.104-3.98,0.322-7.955,1.239-11.811
				c0.912-3.865,2.347-7.558,4.162-11.158c1.833-3.573,4.128-6.922,6.871-9.946c0.686-0.756,1.4-1.491,2.141-2.205
				c0.732-0.728,1.487-1.443,2.272-2.13C1210.12,1422.398,1211.801,1421.114,1213.592,1419.935z"/>
			<path fill="#5FC59D" d="M1201.924,1478.271c-5.352-9.201-6.217-19.879-3.551-29.564c1.329-4.863,3.488-9.589,6.507-13.758
				c1.499-2.102,3.237-4.03,5.123-5.885c1.887-1.855,3.977-3.553,6.27-5.062c2.292-1.509,4.679-2.758,7.129-3.759
				c2.42-1.046,4.901-1.847,7.418-2.404c2.517-0.558,5.068-0.875,7.619-0.959c1.276-0.042,2.551-0.026,3.822,0.048
				c1.264,0.063,2.514,0.171,3.761,0.344c9.957,1.376,19.435,6.385,25.782,14.929c6.347,8.543,8.26,19.085,5.968,29.379
				c-0.286,1.284-0.633,2.571-1.052,3.835c-0.427,1.254-0.918,2.497-1.472,3.725c-1.108,2.457-2.468,4.853-4.069,7.148
				c-1.601,2.294-3.44,4.491-5.508,6.539c-2.099,2.002-4.426,3.86-6.962,5.53c-2.536,1.67-5.162,3.073-7.832,4.211
				c-2.67,1.138-5.438,1.926-8.173,2.501c-5.493,1.117-10.946,1.24-16.116,0.275
				C1216.216,1493.387,1207.275,1487.47,1201.924,1478.271z"/>
		</g>
		<g>
			<path fill="#157119" d="M1140.949,1461.969c1.916-0.964,3.887-1.742,5.847-2.447c1.959-0.707,3.944-1.271,5.943-1.698
				c3.995-0.859,8.063-1.142,12.067-0.963c7.961,0.278,15.801,2.61,22.611,6.772l-86.933-151.469c0,0-3.401,1.899-8.503,4.747
				c-2.53,1.464-5.557,3.029-8.788,4.73c-3.232,1.7-6.653,3.562-10.164,5.248c-1.743,0.867-3.487,1.733-5.203,2.586
				c-1.717,0.851-3.393,1.717-5.059,2.465c-3.307,1.544-6.393,2.985-9.039,4.22c-1.316,0.634-2.541,1.17-3.631,1.638
				c-1.087,0.474-2.035,0.887-2.815,1.228c-1.56,0.682-2.452,1.072-2.452,1.072l69.716,160.125
				c0.726-7.941,3.595-15.486,8.056-22.185c2.245-3.322,4.923-6.368,8.007-9.037
				C1133.661,1466.263,1137.107,1463.876,1140.949,1461.969z"/>
			<path fill="#9925EB" d="M1122.516,1518.529c-4.244-9.779-3.822-20.422-0.058-29.77c1.87-4.719,4.594-9.105,8.083-12.889
				c0.871-0.949,1.796-1.848,2.757-2.729c0.955-0.893,1.957-1.745,3.005-2.552c2.096-1.614,4.375-3.047,6.833-4.27
				c4.941-2.396,10.022-3.936,15.168-4.43c2.569-0.253,5.144-0.264,7.692-0.043c2.538,0.204,5.027,0.596,7.469,1.238
				c9.743,2.547,18.581,8.639,23.89,17.864c5.308,9.224,5.97,19.905,2.477,29.844c-0.874,2.477-1.99,4.93-3.373,7.251
				c-1.392,2.305-3.028,4.52-4.891,6.606c-3.732,4.159-8.335,7.881-13.802,10.542c-2.721,1.354-5.499,2.433-8.29,3.244
				c-1.395,0.405-2.794,0.743-4.189,1.015c-1.402,0.26-2.813,0.43-4.209,0.55c-5.592,0.465-11.05-0.105-16.054-1.623
				C1134.965,1535.264,1126.747,1528.277,1122.516,1518.529z"/>
		</g>
		<g>
			<path fill="#F90539" d="M1063.871,1495.23c4.043-1.436,8.104-2.412,12.189-2.755c4.078-0.362,8.158-0.15,12.089,0.433
				c3.945,0.617,7.795,1.74,11.447,3.326c3.654,1.592,7.108,3.641,10.223,6.055l-68.594-160.608c0,0-0.223,0.098-0.64,0.281
				c-0.419,0.179-1.025,0.466-1.817,0.777c-1.577,0.643-3.829,1.56-6.532,2.661c-2.702,1.102-5.839,2.43-9.266,3.683
				c-3.418,1.274-7.032,2.721-10.696,4.03c-3.67,1.293-7.339,2.586-10.779,3.798c-3.455,1.167-6.706,2.179-9.477,3.094
				c-2.774,0.906-5.082,1.672-6.722,2.128c-1.632,0.483-2.565,0.759-2.565,0.759l50.413,167.209c0.83-3.886,2.185-7.61,3.974-11.152
				c1.78-3.573,4.008-6.92,6.633-9.94C1049.031,1503.042,1055.78,1498.079,1063.871,1495.23z"/>
			<path fill="#83895D" d="M1038.907,1549.218c-1.536-5.095-1.878-10.283-1.237-15.286c0.319-2.507,0.892-4.945,1.677-7.346
				c0.782-2.408,1.786-4.741,2.995-6.966c2.417-4.453,5.647-8.46,9.561-11.799c3.883-3.432,8.453-6.184,13.631-8.011
				c10.287-3.811,21.107-3.31,30.495,0.311c4.7,1.847,9.059,4.55,12.776,8.01c3.708,3.444,6.763,7.62,8.857,12.52
				c2.088,4.888,3.01,10.04,2.809,15.126c-0.207,5.069-1.528,10.098-3.847,14.813c-4.598,9.492-13.362,17.458-24.781,21.68
				c-5.734,2.029-11.565,2.936-17.145,2.824c-5.613-0.205-10.978-1.439-15.775-3.548c-2.399-1.056-4.659-2.333-6.743-3.814
				c-2.087-1.489-4.011-3.22-5.721-5.11C1043.033,1558.832,1040.443,1554.313,1038.907,1549.218z"/>
		</g>
		<g>
			<path fill="#0F9723" d="M983.402,1519.179c4.168-1.015,8.337-1.42,12.435-1.278c1.025,0.035,2.044,0.105,3.058,0.208
				c1.008,0.081,2.011,0.195,3.007,0.342c1.991,0.294,3.955,0.718,5.88,1.265c3.85,1.094,7.546,2.678,10.99,4.697
				c3.432,1.976,6.606,4.363,9.425,7.16l-49.24-167.558c0,0-0.932,0.278-2.563,0.766c-1.623,0.514-3.971,1.146-6.791,1.897
				c-2.817,0.76-6.104,1.646-9.626,2.596c-3.544,0.864-7.325,1.785-11.105,2.707c-15.159,3.541-30.496,6.282-30.496,6.282
				l30.427,171.972c2.565-7.516,7.077-14.388,13.006-19.712c2.974-2.628,6.266-5.078,9.882-6.983c1.806-0.962,3.69-1.808,5.645-2.53
				C979.293,1520.293,981.322,1519.706,983.402,1519.179z"/>
			<path fill="#B9D9B1" d="M952.282,1569.896c-1.836-10.447,1.037-20.81,6.877-29.032c2.926-4.116,6.616-7.658,10.872-10.624
				c2.133-1.461,4.416-2.733,6.837-3.787c2.418-1.064,4.986-1.854,7.647-2.532c5.335-1.3,10.667-1.489,15.795-0.741
				c5.099,0.644,9.998,2.243,14.456,4.648c2.229,1.203,4.346,2.607,6.318,4.196c1.966,1.569,3.782,3.306,5.419,5.228
				c3.273,3.839,5.824,8.37,7.325,13.476c1.501,5.106,1.803,10.305,1.01,15.35c-0.397,2.52-1.064,5.012-1.994,7.412
				c-0.935,2.38-2.128,4.684-3.56,6.879c-2.862,4.39-6.681,8.347-11.265,11.599c-4.609,3.147-9.988,5.569-15.898,7.004
				c-2.948,0.745-5.919,1.075-8.826,1.196c-2.91,0.11-5.768-0.043-8.535-0.441c-5.526-0.753-10.717-2.667-15.236-5.348
				C960.469,1589.013,954.13,1580.414,952.282,1569.896z"/>
		</g>
	</g>
	<g>
		<g>
			<path fill="#7DA571" d="M903.177,1533.205c2.131-0.244,4.243-0.336,6.331-0.286c2.086,0.037,4.14,0.155,6.164,0.441
				c4.046,0.557,7.96,1.65,11.665,3.211c7.393,3.045,13.95,7.84,18.924,14.087l-29.827-172.077c0,0-3.842,0.637-9.605,1.594
				c-2.88,0.49-6.268,0.888-9.882,1.417c-1.809,0.256-3.677,0.52-5.576,0.789c-1.906,0.217-3.843,0.437-5.78,0.658
				c-1.937,0.222-3.873,0.444-5.779,0.663c-0.953,0.111-1.899,0.221-2.833,0.329c-0.938,0.082-1.864,0.163-2.775,0.243
				c-3.643,0.324-7.043,0.627-9.957,0.886c-2.913,0.279-5.356,0.356-7.058,0.486c-1.705,0.108-2.679,0.169-2.679,0.169
				l10.801,174.309c3.391-7.218,8.661-13.312,15.14-18.09c3.244-2.357,6.8-4.306,10.609-5.761
				C894.866,1534.786,898.915,1533.679,903.177,1533.205z"/>
			<path fill="#978BD3" d="M866.545,1580.051c-0.647-10.639,3.38-20.5,10.108-27.989c6.745-7.615,16.206-12.668,27.091-14.019
				c2.726-0.321,5.422-0.329,8.057-0.157c2.631,0.152,5.209,0.557,7.709,1.192c2.499,0.635,4.921,1.501,7.238,2.574
				c1.159,0.537,2.291,1.125,3.394,1.763c1.1,0.617,2.169,1.28,3.206,1.994c8.278,5.703,14.495,14.436,16.325,24.922
				c1.83,10.484-1.203,20.762-7.884,28.931c-0.834,1.02-1.723,2.009-2.665,2.957c-0.945,0.927-1.944,1.816-2.991,2.664
				c-2.096,1.695-4.389,3.222-6.852,4.551c-2.463,1.329-5.095,2.46-7.864,3.361c-2.771,0.881-5.688,1.46-8.704,1.815
				c-12.071,1.49-23.476-1.947-31.818-8.202C872.517,1600.03,867.191,1590.66,866.545,1580.051z"/>
		</g>
		<g>
			<path fill="#8FBBB1" d="M819.439,1538.157c4.285-0.052,8.431,0.492,12.383,1.552c1.976,0.528,3.903,1.193,5.773,1.963
				c1.87,0.734,3.682,1.588,5.429,2.554c3.494,1.931,6.725,4.306,9.613,7.048c1.444,1.371,2.801,2.834,4.06,4.378
				c1.258,1.517,2.419,3.119,3.47,4.797l-9.599-174.379c0,0-0.974,0.062-2.679,0.17c-1.708,0.063-4.149,0.152-7.078,0.26
				c-1.464,0.057-3.051,0.118-4.729,0.184c-0.839,0.034-1.701,0.068-2.582,0.103c-0.882,0.009-1.784,0.019-2.701,0.029
				c-3.667,0.048-7.579,0.099-11.49,0.15c-7.822-0.112-15.651-0.112-21.503-0.428c-2.929-0.109-5.37-0.199-7.078-0.262
				c-0.855-0.025-1.525-0.058-1.981-0.095c-0.457-0.03-0.7-0.046-0.7-0.046l-9.299,174.396c4.194-6.709,10.139-12.413,17.115-16.255
				c1.745-0.977,3.556-1.794,5.425-2.58c1.869-0.778,3.795-1.438,5.77-1.968C811.009,1538.658,815.154,1538.135,819.439,1538.157z"
				/>
			<path fill="#3943F5" d="M777.686,1580.466c0.284-5.327,1.718-10.275,4.017-14.81c2.3-4.525,5.462-8.559,9.239-11.906
				c1.889-1.673,3.933-3.175,6.104-4.48c1.086-0.656,2.204-1.248,3.351-1.815c1.147-0.578,2.324-1.105,3.526-1.577
				c4.811-1.894,10.037-2.886,15.52-2.85c5.483-0.066,10.711,0.947,15.525,2.834c2.407,0.967,4.709,2.054,6.883,3.36
				c2.174,1.305,4.22,2.806,6.112,4.479c3.783,3.346,6.952,7.38,9.26,11.902c2.305,4.477,3.749,9.466,4.042,14.78
				c0.293,5.314-0.6,10.45-2.521,15.188c-1.921,4.693-4.872,8.963-8.651,12.598c-1.889,1.817-3.985,3.475-6.257,4.945
				c-2.273,1.469-4.722,2.773-7.315,3.761c-5.186,2.023-10.953,3.175-17.012,3.241c-6.058-0.035-11.828-1.207-17.017-3.222
				c-1.298-0.505-2.559-1.065-3.781-1.676c-1.221-0.622-2.403-1.322-3.54-2.053c-2.275-1.47-4.373-3.127-6.265-4.944
				c-3.785-3.634-6.743-7.905-8.672-12.596C778.302,1590.945,777.402,1585.767,777.686,1580.466z"/>
		</g>
		<g>
			<path fill="#8D1FE1" d="M735.694,1533.347c2.13,0.244,4.209,0.631,6.231,1.151c2.021,0.527,3.986,1.177,5.893,1.886
				c3.811,1.455,7.37,3.404,10.617,5.761c1.624,1.176,3.169,2.463,4.629,3.825c1.461,1.334,2.836,2.762,4.114,4.271
				c2.556,3.02,4.728,6.37,6.429,9.964l10.5-174.327c0,0-3.896-0.251-9.74-0.628c-5.824-0.558-13.613-1.114-21.347-2.099
				c-1.937-0.219-3.874-0.438-5.781-0.653c-1.905-0.225-3.769-0.523-5.579-0.768c-3.617-0.509-6.993-0.984-9.887-1.391
				c-5.763-0.958-9.605-1.597-9.605-1.597l-29.527,172.129c2.478-3.116,5.36-5.887,8.54-8.251c3.183-2.379,6.654-4.275,10.36-5.872
				C718.949,1533.6,727.165,1532.459,735.694,1533.347z"/>
			<path fill="#7B47D9" d="M689.266,1570.548c1.812-10.488,8.012-19.225,16.279-24.931c4.142-2.865,8.835-5.109,13.828-6.364
				c2.498-0.64,5.073-1.031,7.706-1.202c2.638-0.213,5.331-0.176,8.058,0.136c2.727,0.312,5.358,0.884,7.879,1.687
				c2.518,0.831,4.94,1.743,7.225,2.945c4.573,2.366,8.635,5.558,12.009,9.356c6.744,7.429,10.784,17.334,10.157,27.96
				c-0.628,10.623-5.935,19.952-14.302,26.392c-4.172,3.137-9.094,5.538-14.496,7.012c-2.699,0.718-5.524,1.288-8.417,1.451
				c-2.896,0.19-5.872,0.123-8.889-0.222c-3.017-0.345-5.931-0.953-8.708-1.792c-2.772-0.882-5.404-2.026-7.869-3.35
				c-4.928-2.673-9.187-6.072-12.528-10.141C690.504,1591.316,687.454,1581.036,689.266,1570.548z"/>
		</g>
		<g>
			<path fill="#4D8343" d="M653.014,1518.883c4.158,1.061,8.095,2.447,11.701,4.391c3.614,1.905,6.904,4.346,9.867,7.011
				c5.92,5.336,10.429,12.167,12.972,19.736l30.727-171.919c0,0-3.823-0.736-9.558-1.839c-1.434-0.276-2.987-0.574-4.63-0.889
				c-1.633-0.358-3.356-0.736-5.138-1.127c-1.783-0.387-3.625-0.787-5.497-1.194c-0.936-0.203-1.88-0.406-2.827-0.611
				c-0.941-0.232-1.886-0.464-2.83-0.697c-3.78-0.924-7.56-1.848-11.104-2.714c-3.52-0.955-6.806-1.846-9.622-2.61
				c-1.408-0.382-2.699-0.732-3.843-1.043c-1.135-0.34-2.125-0.637-2.941-0.881c-1.631-0.487-2.563-0.765-2.563-0.765
				l-49.534,167.472c2.824-2.791,6.007-5.19,9.438-7.145c3.438-1.979,7.146-3.59,10.997-4.674c3.858-1.109,7.851-1.656,11.946-1.783
				C644.675,1517.462,648.845,1517.867,653.014,1518.883z"/>
			<path fill="#AFFB4D" d="M602.531,1550.351c1.51-5.103,4.069-9.631,7.35-13.468c3.282-3.836,7.279-6.957,11.749-9.389
				c4.464-2.403,9.368-4,14.47-4.643c5.116-0.689,10.461-0.541,15.792,0.772c1.334,0.322,2.635,0.717,3.908,1.15
				c1.277,0.414,2.521,0.886,3.731,1.412c2.42,1.053,4.702,2.325,6.833,3.786c2.132,1.457,4.107,3.122,5.921,4.912
				c1.82,1.761,3.47,3.684,4.93,5.74c5.828,8.221,8.685,18.572,6.825,29.052c-1.86,10.479-8.218,19.083-17.282,24.445
				c-2.263,1.341-4.691,2.48-7.248,3.396c-2.552,0.888-5.226,1.515-7.996,1.916c-2.768,0.397-5.628,0.549-8.538,0.438
				c-1.455-0.055-2.923-0.177-4.398-0.366c-1.471-0.208-2.945-0.505-4.422-0.861c-5.906-1.449-11.294-3.831-15.885-7.036
				c-4.581-3.252-8.394-7.208-11.25-11.598c-2.865-4.362-4.741-9.273-5.525-14.316
				C600.711,1560.651,601.021,1555.454,602.531,1550.351z"/>
		</g>
		<g>
			<path fill="#A5F9C7" d="M572.58,1494.814c8.099,2.825,14.824,7.846,20.099,13.806c2.622,3.019,4.846,6.365,6.621,9.937
				c1.767,3.597,3.129,7.28,3.949,11.177l50.706-167.12c0,0-3.745-1.058-9.279-2.912c-1.388-0.45-2.891-0.937-4.482-1.453
				c-1.589-0.518-3.275-1.035-4.987-1.666c-3.441-1.211-7.111-2.503-10.781-3.794c-7.277-2.757-14.57-5.475-19.944-7.76
				c-2.702-1.103-4.954-2.023-6.53-2.667c-1.559-0.686-2.45-1.077-2.45-1.077l-68.875,160.488c6.238-4.809,13.8-8.128,21.685-9.342
				c1.974-0.309,3.97-0.484,5.983-0.539c2.025-0.088,4.064-0.044,6.103,0.137C564.481,1492.386,568.558,1493.323,572.58,1494.814z"
				/>
			<path fill="#0FD591" d="M518.754,1520.12c2.099-4.89,5.171-9.081,8.875-12.496c3.713-3.429,8.086-6.149,12.79-7.987
				c2.354-0.922,4.793-1.63,7.285-2.109c2.49-0.474,5.034-0.722,7.628-0.799c5.177-0.124,10.432,0.745,15.578,2.662
				c5.178,1.827,9.746,4.58,13.626,8.011c3.891,3.393,7.131,7.359,9.537,11.823c4.794,8.941,6.462,19.413,3.379,29.614
				c-3.074,10.175-10.444,18.116-20.051,22.283c-4.798,2.094-10.181,3.366-15.778,3.513c-5.583,0.11-11.415-0.8-17.148-2.83
				c-5.701-2.12-10.735-5.212-14.933-8.894c-2.106-1.825-3.972-3.876-5.607-6.044c-1.637-2.163-3.042-4.441-4.199-6.797
				c-2.311-4.72-3.633-9.727-3.821-14.821C515.732,1530.14,516.655,1525.01,518.754,1520.12z"/>
		</g>
		<g>
			<path fill="#474D01" d="M495.562,1461.412c3.841,1.91,7.29,4.289,10.333,7.039c3.063,2.708,5.752,5.724,7.99,9.054
				c2.249,3.303,4.032,6.957,5.405,10.646c1.363,3.71,2.251,7.598,2.611,11.554l69.996-160.002c0,0-0.892-0.39-2.452-1.071
				c-1.558-0.688-3.805-1.621-6.436-2.89c-2.646-1.234-5.733-2.674-9.041-4.217c-3.288-1.585-6.756-3.356-10.251-5.073
				c-0.873-0.432-1.745-0.863-2.614-1.293c-0.858-0.452-1.713-0.902-2.561-1.348c-1.695-0.895-3.363-1.776-4.977-2.629
				c-1.616-0.85-3.178-1.671-4.659-2.45c-1.461-0.817-2.842-1.59-4.117-2.303c-2.551-1.425-4.677-2.611-6.164-3.443
				c-0.745-0.414-1.33-0.74-1.729-0.962c-0.394-0.23-0.604-0.353-0.604-0.353l-87.197,151.318
				c6.805-4.129,14.665-6.475,22.628-6.743c3.98-0.126,8.07,0.122,12.061,0.993C487.79,1458.082,491.701,1459.541,495.562,1461.412z
				"/>
			<path fill="#3FCFF9" d="M439.126,1480.288c5.309-9.189,14.173-15.291,23.923-17.826c2.441-0.634,4.942-1.044,7.469-1.22
				c2.536-0.194,5.122-0.2,7.69,0.059c2.571,0.254,5.136,0.751,7.664,1.504c1.265,0.376,2.52,0.818,3.764,1.322
				c1.257,0.479,2.502,1.023,3.731,1.634c4.925,2.426,9.096,5.778,12.577,9.575c3.486,3.783,6.205,8.167,8.069,12.884
				c1.848,4.747,2.913,9.669,2.942,14.738c0.037,5.05-0.924,10.164-3.056,15.04c-2.132,4.876-5.242,9.05-9.09,12.399
				c-3.838,3.331-8.453,5.92-13.45,7.403c-5.009,1.515-10.471,2.081-16.065,1.614c-5.586-0.479-11.228-2.149-16.678-4.841
				c-1.36-0.677-2.674-1.408-3.938-2.186c-1.251-0.803-2.45-1.657-3.599-2.551c-2.297-1.789-4.385-3.747-6.246-5.833
				c-1.858-2.091-3.502-4.288-4.878-6.617c-1.366-2.347-2.49-4.78-3.358-7.262C433.121,1500.184,433.786,1489.53,439.126,1480.288z"
				/>
		</g>
	</g>
	<g>
		<g>
			<path fill="#CFF94B" d="M425.082,1420.622c7.116,4.785,12.691,10.925,16.351,18.1c3.705,7.088,5.648,14.973,5.443,22.957
				l87.722-151.013c0,0-3.354-1.982-8.386-4.956c-2.518-1.483-5.377-3.346-8.487-5.262c-1.547-0.972-3.161-1.951-4.775-2.987
				c-1.601-1.057-3.228-2.13-4.855-3.204c-6.563-4.209-12.898-8.763-17.719-12.073c-4.724-3.449-7.874-5.749-7.874-5.749
				l-103.748,140.487c3.614-1.67,7.433-2.852,11.336-3.535c3.91-0.692,7.868-0.836,11.893-0.592
				c4.006,0.271,7.99,1.054,11.851,2.377c0.965,0.331,1.923,0.695,2.872,1.094c0.959,0.383,1.914,0.795,2.855,1.244
				C421.447,1418.407,423.29,1419.443,425.082,1420.622z"/>
			<path fill="#798D77" d="M366.894,1432.983c6.333-8.555,15.797-13.575,25.745-14.958c4.991-0.703,10.186-0.589,15.208,0.535
				c2.523,0.545,4.98,1.38,7.431,2.377c2.45,1,4.836,2.248,7.129,3.757c2.293,1.509,4.383,3.207,6.271,5.062
				c1.919,1.807,3.635,3.771,5.143,5.862c1.508,2.091,2.808,4.309,3.894,6.619c0.543,1.155,1.033,2.333,1.468,3.53
				c0.442,1.185,0.838,2.377,1.173,3.591c2.677,9.69,1.827,20.377-3.509,29.587c-5.335,9.209-14.262,15.135-24.627,17.1
				c-1.293,0.245-2.612,0.435-3.94,0.55c-1.32,0.104-2.657,0.144-4.004,0.121c-2.695-0.047-5.434-0.349-8.176-0.911
				c-2.741-0.563-5.486-1.385-8.186-2.474c-2.669-1.136-5.296-2.539-7.832-4.208c-2.537-1.669-4.864-3.526-6.965-5.529
				c-2.102-2-3.919-4.231-5.529-6.515c-3.197-4.603-5.465-9.562-6.622-14.691C358.663,1452.088,360.561,1441.537,366.894,1432.983z"
				/>
		</g>
		<g>
			<path fill="#DF9535" d="M357.751,1370.548c1.642,1.379,3.143,2.871,4.558,4.402c1.424,1.518,2.728,3.117,3.911,4.783
				c2.368,3.328,4.242,6.945,5.657,10.698c2.894,7.418,3.853,15.54,2.724,23.439l104.719-139.764c0,0-3.094-2.375-7.735-5.937
				c-2.348-1.745-4.984-3.915-7.833-6.208c-2.849-2.292-5.91-4.712-8.857-7.269c-1.49-1.259-2.979-2.518-4.446-3.758
				c-1.471-1.234-2.919-2.449-4.271-3.681c-2.736-2.427-5.29-4.693-7.479-6.634c-2.188-1.944-3.934-3.648-5.194-4.799
				c-1.25-1.163-1.964-1.828-1.964-1.828l-119.357,127.492c3.779-1.236,7.705-1.961,11.655-2.181
				c1.979-0.114,3.948-0.083,5.939,0.042c1.997,0.118,3.987,0.362,5.957,0.733c3.94,0.742,7.798,1.99,11.471,3.761
				C350.915,1365.57,354.482,1367.774,357.751,1370.548z"/>
			<path fill="#DB4311" d="M298.539,1376.06c7.289-7.769,17.243-11.625,27.297-11.86c5.073-0.157,10.18,0.602,15.036,2.302
				c1.214,0.425,2.414,0.909,3.593,1.453c1.194,0.527,2.376,1.106,3.53,1.748c2.312,1.284,4.53,2.807,6.626,4.578
				c4.158,3.582,7.573,7.648,10.067,12.171c1.249,2.258,2.277,4.617,3.083,7.043c0.812,2.417,1.439,4.853,1.815,7.35
				c1.514,9.953-0.585,20.478-6.958,29.003c-6.372,8.525-15.918,13.361-26.423,14.09c-2.619,0.178-5.315,0.129-7.988-0.227
				c-2.666-0.364-5.346-0.987-7.998-1.87c-5.297-1.771-10.524-4.532-15.129-8.489c-2.319-1.958-4.408-4.079-6.255-6.317
				c-0.923-1.12-1.789-2.265-2.586-3.442c-0.783-1.194-1.505-2.411-2.164-3.646c-2.638-4.942-4.275-10.172-4.862-15.362
				C288.122,1394.104,291.263,1383.814,298.539,1376.06z"/>
		</g>
		<g>
			<path fill="#5B7D93" d="M296.693,1313.005c0.731,0.784,1.428,1.588,2.093,2.409c0.674,0.813,1.33,1.629,1.945,2.47
				c1.234,1.677,2.34,3.42,3.317,5.216c1.972,3.575,3.36,7.437,4.39,11.269c2.01,7.707,1.973,15.933-0.025,23.603l120.235-126.664
				c0,0-0.731-0.647-1.94-1.853c-1.221-1.193-2.964-2.898-5.057-4.944c-1.048-1.021-2.184-2.126-3.385-3.296
				c-1.172-1.199-2.408-2.463-3.686-3.771c-1.278-1.308-2.599-2.66-3.941-4.033c-0.672-0.686-1.349-1.377-2.03-2.071
				c-0.662-0.711-1.327-1.425-1.991-2.139c-2.656-2.858-5.312-5.716-7.802-8.396c-2.426-2.737-4.691-5.292-6.632-7.481
				c-1.968-2.166-3.517-4.05-4.62-5.353c-1.101-1.304-1.731-2.049-1.731-2.049l-133.339,112.788
				c3.893-0.786,7.871-1.046,11.814-0.801c3.935,0.253,7.936,0.924,11.744,2.134c3.831,1.191,7.476,2.916,10.957,5.065
				C290.511,1307.239,293.77,1309.867,296.693,1313.005z"/>
			<path fill="#973339" d="M237.251,1311.602c4.064-3.437,8.689-5.819,13.537-7.227c4.861-1.417,9.89-1.813,14.963-1.397
				c5.049,0.439,10.024,1.793,14.641,4.054c4.644,2.238,9.03,5.292,12.758,9.318c1.853,2.024,3.527,4.128,4.972,6.332
				c1.439,2.21,2.644,4.528,3.618,6.92c1.918,4.812,3.03,9.812,3.204,14.853c0.328,10.081-2.981,20.292-10.277,27.997
				c-7.341,7.751-17.381,11.445-27.879,10.932c-5.248-0.247-10.617-1.519-15.642-3.926c-2.526-1.189-4.993-2.632-7.358-4.322
				c-2.371-1.685-4.632-3.624-6.686-5.859c-4.129-4.45-7.318-9.388-9.38-14.587c-2.037-5.224-3.048-10.616-3.021-15.846
				c0.002-5.211,1.158-10.361,3.259-14.992C230.075,1319.21,233.188,1315.039,237.251,1311.602z"/>
		</g>
		<g>
			<path fill="#47E3D1" d="M242.714,1248.767c2.562,3.438,4.64,7.063,6.146,10.873c0.758,1.901,1.383,3.84,1.879,5.804
				c0.514,1.95,0.922,3.906,1.189,5.887c1.089,7.899,0.07,16.088-2.76,23.44l134.116-111.863c0,0-0.631-0.744-1.736-2.045
				c-1.07-1.329-2.599-3.228-4.434-5.507c-3.73-4.51-8.443-10.727-13.167-16.933c-2.298-3.151-4.595-6.302-6.749-9.255
				c-2.131-2.97-4.031-5.804-5.712-8.197c-1.669-2.401-3.072-4.394-3.985-5.835c-0.936-1.426-1.471-2.24-1.471-2.24l-145.547,96.522
				c3.96-0.328,7.916-0.107,11.824,0.581c3.933,0.673,7.778,1.84,11.424,3.481C230.964,1236.813,237.669,1241.836,242.714,1248.767z
				"/>
			<path fill="#75D3F3" d="M183.843,1240.452c4.436-2.941,9.304-4.767,14.278-5.598c2.493-0.419,4.992-0.574,7.517-0.517
				c2.53,0.053,5.053,0.341,7.531,0.856c4.961,1.026,9.717,2.969,14.054,5.742c4.401,2.729,8.348,6.312,11.584,10.744
				c3.291,4.391,5.641,9.163,7,14.159c0.345,1.245,0.619,2.51,0.855,3.766c0.244,1.25,0.429,2.509,0.555,3.771
				c0.253,2.524,0.272,5.063,0.06,7.58c-0.418,5.03-1.775,9.996-4.001,14.532c-2.215,4.525-5.355,8.665-9.441,12.074
				c-4.086,3.409-8.738,5.76-13.684,7.047c-4.934,1.278-10.108,1.447-15.288,0.586c-2.587-0.432-5.17-1.125-7.708-2.071
				c-1.269-0.474-2.527-1.01-3.769-1.609c-1.234-0.605-2.43-1.29-3.616-2.027c-4.722-2.964-9.135-6.884-12.775-11.743
				c-3.586-4.901-6.126-10.218-7.619-15.588c-1.431-5.417-1.781-10.913-1.144-16.108c0.321-2.6,0.894-5.13,1.712-7.552
				c0.824-2.426,1.927-4.766,3.243-6.948C175.829,1247.176,179.408,1243.393,183.843,1240.452z"/>
		</g>
		<g>
			<path fill="#A16F6F" d="M196.577,1178.665c4.371,7.377,6.333,15.523,6.533,23.484c0.066,3.999-0.383,7.993-1.32,11.871
				c-0.914,3.863-2.275,7.583-4.143,11.09l146.214-95.508c0,0-0.537-0.813-1.476-2.237c-0.963-1.408-2.237-3.485-3.782-5.966
				c-1.533-2.489-3.384-5.354-5.267-8.484c-1.859-3.145-3.842-6.499-5.825-9.853c-3.825-6.787-7.67-13.565-10.327-18.769
				c-1.366-2.582-2.504-4.734-3.3-6.24c-0.755-1.527-1.187-2.4-1.187-2.4l-155.824,78.862c7.868,0.317,15.806,2.619,22.622,6.752
				c1.715,1.029,3.345,2.182,4.939,3.423c1.608,1.233,3.141,2.575,4.587,4.024C191.926,1171.606,194.43,1174.952,196.577,1178.665z"
				/>
			<path fill="#55CDFD" d="M139.059,1163.532c4.749-2.402,9.793-3.645,14.825-3.886c5.059-0.253,10.148,0.473,14.935,2.081
				c2.395,0.804,4.719,1.827,6.937,3.059c1.109,0.616,2.191,1.285,3.242,2.004c1.067,0.711,2.116,1.466,3.124,2.275
				c4.051,3.226,7.502,7.276,10.235,12.035c2.791,4.726,4.52,9.77,5.286,14.892c0.832,5.08,0.737,10.217-0.283,15.18
				c-0.507,2.479-1.24,4.911-2.192,7.256c-0.948,2.343-2.078,4.576-3.449,6.7c-2.731,4.24-6.333,7.989-10.789,10.9
				c-4.455,2.911-9.345,4.702-14.404,5.401c-2.524,0.346-5.111,0.434-7.663,0.23c-2.548-0.206-5.099-0.681-7.614-1.415
				c-5.024-1.471-9.934-3.966-14.344-7.425c-4.344-3.498-8.223-7.938-11.308-13.173c-3.027-5.268-4.88-10.879-5.736-16.392
				c-0.21-1.381-0.361-2.754-0.435-4.124c-0.059-1.379-0.054-2.748,0.013-4.102c0.135-2.708,0.52-5.357,1.147-7.906
				c1.257-5.1,3.468-9.792,6.583-13.813C130.311,1169.276,134.311,1165.935,139.059,1163.532z"/>
		</g>
		<g>
			<path fill="#F9E923" d="M158.958,1103.626c1.718,3.931,2.835,7.969,3.403,12.032c0.619,4.039,0.738,8.081,0.318,12.071
				c-0.879,7.992-3.575,15.633-8.102,22.168l156.371-77.772c0,0-7.045-13.901-13.102-28.247c-1.614-3.543-2.996-7.184-4.4-10.551
				c-0.692-1.688-1.362-3.319-1.996-4.866c-0.62-1.553-1.158-3.04-1.681-4.402c-2.078-5.454-3.462-9.091-3.462-9.091
				l-164.002,60.031c7.893,1.196,15.404,4.454,21.683,9.362c3.149,2.453,6.112,5.275,8.615,8.504
				C155.127,1096.086,157.201,1099.712,158.958,1103.626z"/>
			<path fill="#E10F9F" d="M103.554,1081.862c9.996-3.646,20.689-2.624,29.794,1.694c2.278,1.082,4.457,2.375,6.507,3.862
				c2.086,1.473,4.06,3.134,5.865,4.981c1.807,1.846,3.454,3.874,4.909,6.076c0.731,1.099,1.4,2.248,2.042,3.428
				c0.656,1.174,1.261,2.391,1.811,3.649c1.1,2.516,1.926,5.078,2.497,7.661c0.578,2.579,0.858,5.196,1.004,7.755
				c0.244,5.139-0.485,10.247-2.084,15.061c-0.81,2.412-1.812,4.736-2.995,6.937c-1.194,2.206-2.6,4.304-4.206,6.252
				c-3.214,3.896-7.233,7.201-11.998,9.572c-4.765,2.371-9.828,3.576-14.927,3.674c-2.55,0.049-5.108-0.177-7.64-0.669
				c-2.543-0.486-5.031-1.252-7.427-2.284c-4.813-2.054-9.364-5.126-13.353-9.075c-2.018-1.964-3.785-4.196-5.412-6.607
				c-1.619-2.415-3.056-5.027-4.272-7.814c-0.608-1.393-1.146-2.797-1.616-4.205c-0.455-1.414-0.818-2.844-1.128-4.266
				c-0.612-2.848-0.956-5.691-1.044-8.487c-0.086-2.797,0.077-5.543,0.5-8.207c0.459-2.678,1.16-5.268,2.089-7.729
				C86.182,1093.262,93.553,1085.51,103.554,1081.862z"/>
		</g>
	</g>
	<g>
		<g>
			<path fill="#3B05A3" d="M131.104,1027.08c0.612,2.056,1.072,4.122,1.387,6.187c0.339,2.058,0.572,4.104,0.645,6.148
				c0.157,4.083-0.238,8.13-1.13,12.053c-1.68,7.805-5.284,15.111-10.562,21.101l164.211-59.456c0,0-1.292-3.67-3.231-9.174
				c-0.242-0.688-0.495-1.405-0.756-2.147c-0.241-0.749-0.491-1.522-0.747-2.318c-0.515-1.59-1.058-3.267-1.621-5.002
				c-0.565-1.734-1.15-3.525-1.744-5.346c-0.547-1.835-1.102-3.699-1.658-5.564c-0.556-1.864-1.111-3.728-1.658-5.564
				c-0.274-0.917-0.546-1.828-0.814-2.727c-0.243-0.906-0.483-1.802-0.72-2.683c-0.954-3.521-1.844-6.807-2.607-9.623
				c-0.75-2.82-1.276-5.196-1.694-6.846c-0.404-1.654-0.634-2.599-0.634-2.599l-169.78,40.926c3.837,1.046,7.516,2.599,10.937,4.589
				c1.714,0.994,3.349,2.101,4.934,3.303c1.605,1.197,3.136,2.495,4.58,3.888c2.888,2.786,5.429,5.95,7.529,9.449
				C128.093,1019.169,129.896,1022.963,131.104,1027.08z"/>
			<path fill="#431B4B" d="M78.582,999.126c10.357-2.484,20.8-0.232,29.321,5.103c8.683,5.321,15.307,13.765,18.536,24.252
				c0.795,2.628,1.265,5.287,1.567,7.908c0.309,2.619,0.359,5.229,0.169,7.803c-0.365,5.141-1.765,10.165-3.808,14.734
				c-4.175,9.153-11.691,16.804-21.695,20.44c-10.003,3.635-20.649,2.442-29.853-2.717c-4.641-2.558-8.72-6.162-12.212-10.549
				c-1.738-2.196-3.31-4.593-4.681-7.166c-1.363-2.575-2.435-5.353-3.314-8.264c-3.577-11.641-2.183-23.495,2.512-32.809
				C59.969,1008.482,68.239,1001.606,78.582,999.126z"/>
		</g>
		<g>
			<path fill="#0FCBAD" d="M111.686,945.406c0.719,4.228,0.974,8.398,0.606,12.48c-0.344,4.077-1.272,8.061-2.523,11.831
				c-2.558,7.547-7.129,14.407-12.997,19.717l170.063-39.736c0,0-0.058-0.236-0.167-0.679c-0.115-0.441-0.266-1.093-0.439-1.927
				c-0.361-1.664-0.876-4.041-1.495-6.894c-0.624-2.851-1.381-6.172-2.022-9.767c-0.664-3.589-1.461-7.4-2.121-11.238
				c-0.637-3.842-1.273-7.684-1.87-11.286c-0.575-3.606-0.987-6.992-1.411-9.883c-0.389-2.896-0.791-5.299-0.948-6.999
				c-0.191-1.695-0.3-2.663-0.3-2.663L82.655,909.127c3.691,1.487,7.088,3.467,10.31,5.835c3.208,2.37,6.116,5.142,8.633,8.249
				C106.552,929.442,110.297,936.943,111.686,945.406z"/>
			<path fill="#9309F3" d="M62.832,911.501c10.589-1.256,20.594,2.211,28.567,8.489c3.97,3.148,7.334,7.025,9.967,11.451
				c2.706,4.418,4.623,9.394,5.523,14.809c1.982,10.788-0.401,21.359-5.586,29.976c-2.631,4.309-6.047,8.133-10.098,11.194
				c-4.06,3.062-8.681,5.342-13.876,6.557c-5.17,1.209-10.425,1.229-15.373,0.143c-4.957-1.082-9.684-3.253-13.927-6.354
				c-8.56-6.172-14.871-16.182-17.061-28.152c-1.002-5.995-0.884-11.891,0.195-17.364c1.151-5.485,3.32-10.553,6.225-14.909
				C43.161,918.618,52.282,912.752,62.832,911.501z"/>
		</g>
		<g>
			<path fill="#8DEBBD" d="M102.016,862.048c0.27,4.278-0.062,8.452-0.919,12.462c-0.808,4.006-2.068,7.842-3.827,11.445
				c-1.738,3.6-3.98,6.969-6.519,10.007c-2.524,3.036-5.442,5.75-8.682,8.043l173.544-19.561c0,0-0.112-0.968-0.307-2.663
				c-0.098-0.847-0.218-1.876-0.355-3.056c-0.133-1.18-0.226-2.519-0.361-3.976c-0.26-2.914-0.564-6.314-0.889-9.957
				c-0.278-3.648-0.48-7.549-0.744-11.444c-0.303-3.892-0.384-7.802-0.534-11.462c-0.126-3.662-0.322-7.075-0.31-10.011
				c-0.075-5.867-0.125-9.779-0.125-9.779l-174.642,0.596c7.006,3.804,12.938,9.417,17.153,16.163
				c2.188,3.374,3.954,7.036,5.214,10.921c0.63,1.943,1.134,3.942,1.5,5.99C101.569,857.814,101.895,859.909,102.016,862.048z"/>
			<path fill="#613329" d="M57.382,822.759c10.644-0.024,20.334,4.567,27.403,11.718c1.782,1.791,3.338,3.746,4.818,5.839
				c1.464,2.094,2.742,4.326,3.807,6.675c2.152,4.698,3.339,9.865,3.743,15.337c0.367,5.474-0.448,10.76-1.988,15.672
				c-1.525,4.909-3.954,9.457-7.101,13.43c-3.178,3.975-6.938,7.363-11.292,9.925c-4.35,2.56-9.255,4.289-14.543,4.885
				c-5.288,0.597-10.46-0.003-15.288-1.653c-4.824-1.649-9.343-4.347-13.134-7.922c-3.822-3.571-7.051-8.007-9.451-13.074
				c-2.386-5.066-3.762-10.773-4.163-16.827c-0.437-6.054,0.505-11.886,2.235-17.186c0.876-2.651,1.976-5.169,3.277-7.522
				c1.285-2.353,2.88-4.54,4.582-6.531C37.154,827.548,46.739,822.784,57.382,822.759z"/>
		</g>
		<g>
			<path fill="#978135" d="M102.016,778.185c-0.121,2.14-0.447,4.234-0.801,6.283c-0.367,2.049-0.87,4.048-1.5,5.99
				c-1.26,3.885-3.025,7.547-5.214,10.921c-4.216,6.746-10.147,12.358-17.153,16.163l174.642,0.596c0,0,0.05-3.912,0.125-9.779
				c-0.013-2.937,0.184-6.35,0.31-10.011c0.151-3.66,0.231-7.57,0.534-11.462c0.264-3.895,0.466-7.796,0.744-11.444
				c0.325-3.643,0.629-7.043,0.889-9.957c0.134-1.456,0.228-2.795,0.361-3.976c0.137-1.18,0.257-2.209,0.355-3.056
				c0.195-1.694,0.307-2.663,0.307-2.663L82.069,736.229c3.241,2.292,6.158,5.007,8.682,8.043c2.539,3.038,4.781,6.406,6.519,10.007
				c1.759,3.603,3.02,7.439,3.827,11.445C101.955,769.733,102.286,773.907,102.016,778.185z"/>
			<path fill="#39E511" d="M62.229,733.993c5.288,0.597,10.194,2.326,14.543,4.885c4.354,2.562,8.114,5.95,11.292,9.925
				c3.146,3.974,5.576,8.521,7.101,13.43c1.539,4.912,2.355,10.198,1.988,15.672c-0.403,5.473-1.59,10.639-3.743,15.337
				c-1.065,2.349-2.343,4.581-3.807,6.675c-1.48,2.093-3.036,4.049-4.818,5.839c-7.07,7.15-16.759,11.742-27.403,11.718
				c-10.643-0.024-20.228-4.789-27.097-12.765c-1.702-1.991-3.297-4.178-4.582-6.531c-1.3-2.353-2.401-4.872-3.277-7.523
				c-1.73-5.3-2.672-11.132-2.235-17.186c0.401-6.054,1.777-11.761,4.163-16.827c2.401-5.067,5.629-9.503,9.451-13.074
				c3.792-3.575,8.31-6.273,13.134-7.922C51.769,733.995,56.941,733.396,62.229,733.993z"/>
		</g>
		<g>
			<path fill="#63459B" d="M111.686,694.828c-1.389,8.462-5.134,15.964-10.087,22.194c-2.517,3.107-5.424,5.879-8.633,8.249
				c-3.223,2.368-6.619,4.348-10.311,5.835l173.404,20.765c0,0,0.109-0.969,0.3-2.663c0.157-1.7,0.56-4.102,0.948-6.999
				c0.424-2.891,0.836-6.277,1.411-9.883c0.597-3.602,1.233-7.444,1.87-11.286c0.66-3.838,1.457-7.649,2.121-11.238
				c0.641-3.594,1.397-6.915,2.022-9.767c0.618-2.853,1.134-5.23,1.495-6.894c0.173-0.834,0.324-1.485,0.439-1.927
				c0.109-0.443,0.167-0.679,0.167-0.679L96.771,650.799c5.869,5.311,10.439,12.171,12.997,19.718
				c1.252,3.771,2.179,7.754,2.523,11.831C112.66,686.43,112.405,690.6,111.686,694.828z"/>
			<path fill="#8D2759" d="M77.329,646.257c5.195,1.214,9.815,3.495,13.876,6.557c4.051,3.061,7.466,6.885,10.098,11.194
				c5.185,8.617,7.568,19.188,5.586,29.976c-0.9,5.415-2.818,10.392-5.523,14.809c-2.632,4.427-5.997,8.303-9.967,11.451
				c-7.972,6.278-17.978,9.744-28.567,8.489c-10.55-1.251-19.67-7.117-25.445-15.84c-2.905-4.356-5.073-9.425-6.225-14.909
				c-1.079-5.473-1.197-11.369-0.195-17.364c2.19-11.97,8.501-21.98,17.061-28.152c4.244-3.101,8.97-5.272,13.927-6.354
				C66.904,645.028,72.159,645.048,77.329,646.257z"/>
		</g>
		<g>
			<path fill="#8BB301" d="M131.104,613.154c-1.208,4.117-3.011,7.911-5.132,11.404c-2.1,3.499-4.641,6.663-7.529,9.449
				c-1.444,1.393-2.975,2.691-4.58,3.888c-1.585,1.202-3.22,2.309-4.934,3.303c-3.421,1.989-7.1,3.542-10.937,4.589l169.78,40.926
				c0,0,0.231-0.945,0.634-2.599c0.418-1.65,0.944-4.026,1.694-6.846c0.763-2.816,1.653-6.102,2.607-9.623
				c0.237-0.881,0.477-1.776,0.72-2.683c0.269-0.899,0.54-1.809,0.814-2.727c0.547-1.835,1.102-3.699,1.658-5.564
				c0.556-1.864,1.111-3.728,1.658-5.563c0.594-1.82,1.178-3.612,1.744-5.346c0.562-1.735,1.105-3.412,1.621-5.002
				c0.257-0.796,0.506-1.569,0.747-2.318c0.261-0.742,0.514-1.459,0.756-2.147c1.939-5.505,3.231-9.174,3.231-9.174l-164.211-59.456
				c5.278,5.991,8.881,13.296,10.562,21.101c0.891,3.922,1.287,7.969,1.13,12.053c-0.073,2.044-0.307,4.09-0.645,6.148
				C132.176,609.033,131.716,611.098,131.104,613.154z"/>
			<path fill="#BDE9E9" d="M102.672,560.868c10.004,3.635,17.52,11.287,21.695,20.44c2.043,4.569,3.443,9.593,3.808,14.734
				c0.19,2.573,0.14,5.183-0.169,7.803c-0.302,2.621-0.773,5.28-1.567,7.908c-3.229,10.487-9.853,18.931-18.536,24.252
				c-8.521,5.336-18.964,7.587-29.321,5.103c-10.342-2.48-18.613-9.356-23.457-18.735c-4.695-9.314-6.089-21.167-2.512-32.808
				c0.88-2.911,1.951-5.689,3.314-8.264c1.37-2.573,2.943-4.97,4.681-7.166c3.491-4.388,7.57-7.991,12.212-10.549
				C82.023,558.426,92.669,557.233,102.672,560.868z"/>
		</g>
	</g>
	<g>
		<g>
			<path fill="#BB99CF" d="M158.958,536.607c-1.757,3.914-3.831,7.54-6.356,10.761c-2.503,3.229-5.466,6.051-8.615,8.504
				c-6.28,4.908-13.791,8.166-21.683,9.362l164.002,60.031c0,0,1.385-3.636,3.462-9.091c0.524-1.362,1.061-2.849,1.681-4.402
				c0.634-1.547,1.304-3.179,1.996-4.866c1.404-3.367,2.786-7.007,4.4-10.551c6.057-14.346,13.102-28.247,13.102-28.247
				l-156.371-77.772c4.528,6.535,7.223,14.176,8.102,22.168c0.42,3.989,0.301,8.031-0.318,12.071
				C161.794,528.638,160.676,532.676,158.958,536.607z"/>
			<path fill="#A7A15D" d="M136.7,481.445c4.765,2.371,8.784,5.675,11.998,9.572c1.607,1.949,3.012,4.046,4.206,6.252
				c1.183,2.201,2.185,4.526,2.995,6.937c1.599,4.814,2.328,9.922,2.084,15.061c-0.146,2.559-0.426,5.177-1.004,7.755
				c-0.57,2.583-1.397,5.145-2.497,7.661c-0.55,1.258-1.155,2.474-1.811,3.649c-0.642,1.18-1.311,2.329-2.042,3.428
				c-1.455,2.201-3.102,4.229-4.909,6.075c-1.805,1.847-3.779,3.508-5.865,4.981c-2.049,1.488-4.229,2.78-6.507,3.862
				c-9.105,4.317-19.798,5.34-29.794,1.694c-10.002-3.648-17.372-11.399-21.083-21.259c-0.929-2.462-1.63-5.051-2.089-7.729
				c-0.423-2.664-0.585-5.41-0.5-8.206c0.088-2.796,0.432-5.639,1.044-8.487c0.309-1.423,0.672-2.852,1.128-4.266
				c0.469-1.408,1.008-2.812,1.616-4.205c1.216-2.786,2.653-5.399,4.272-7.814c1.627-2.411,3.394-4.643,5.412-6.607
				c3.989-3.949,8.54-7.021,13.353-9.075c2.396-1.032,4.884-1.798,7.427-2.284c2.532-0.492,5.09-0.718,7.64-0.669
				C126.872,477.869,131.935,479.074,136.7,481.445z"/>
		</g>
		<g>
			<path fill="#25A7BB" d="M196.577,461.569c-2.147,3.713-4.651,7.059-7.555,9.95c-1.446,1.449-2.979,2.791-4.587,4.024
				c-1.594,1.241-3.224,2.394-4.939,3.423c-6.816,4.133-14.754,6.435-22.622,6.752l155.824,78.862c0,0,0.432-0.873,1.187-2.4
				c0.797-1.506,1.935-3.658,3.3-6.24c2.657-5.203,6.502-11.981,10.327-18.769c1.983-3.354,3.966-6.708,5.825-9.852
				c1.883-3.13,3.735-5.995,5.267-8.484c1.545-2.481,2.818-4.558,3.782-5.966c0.939-1.423,1.476-2.237,1.476-2.237l-146.214-95.508
				c1.868,3.507,3.228,7.228,4.142,11.091c0.937,3.878,1.386,7.872,1.32,11.871C202.91,446.045,200.948,454.192,196.577,461.569z"/>
			<path fill="#E9911B" d="M180.932,404.204c4.455,2.911,8.058,6.66,10.789,10.9c1.371,2.124,2.501,4.357,3.449,6.7
				c0.952,2.345,1.684,4.776,2.192,7.256c1.02,4.963,1.115,10.1,0.283,15.18c-0.766,5.122-2.495,10.166-5.286,14.893
				c-2.733,4.76-6.185,8.81-10.235,12.035c-1.008,0.809-2.057,1.564-3.124,2.275c-1.051,0.72-2.134,1.388-3.242,2.004
				c-2.218,1.232-4.542,2.255-6.937,3.059c-4.787,1.608-9.877,2.334-14.935,2.081c-5.032-0.241-10.076-1.483-14.825-3.886
				c-4.749-2.402-8.749-5.744-11.889-9.78c-3.115-4.02-5.326-8.712-6.583-13.813c-0.627-2.549-1.013-5.197-1.147-7.906
				c-0.067-1.354-0.072-2.723-0.013-4.102c0.074-1.37,0.226-2.743,0.435-4.124c0.856-5.513,2.709-11.123,5.736-16.392
				c3.084-5.235,6.964-9.675,11.308-13.173c4.41-3.459,9.32-5.954,14.344-7.425c2.515-0.734,5.065-1.209,7.614-1.415
				c2.552-0.204,5.14-0.116,7.663,0.231C171.587,399.502,176.477,401.293,180.932,404.204z"/>
		</g>
		<g>
			<path fill="#D367DB" d="M242.713,391.466c-5.045,6.932-11.749,11.955-18.982,15.286c-3.647,1.642-7.492,2.809-11.424,3.482
				c-3.908,0.689-7.864,0.91-11.824,0.582l145.547,96.522c0,0,0.535-0.815,1.471-2.24c0.912-1.441,2.316-3.434,3.985-5.835
				c1.68-2.393,3.58-5.227,5.712-8.197c2.154-2.954,4.452-6.105,6.749-9.255c4.724-6.206,9.437-12.423,13.167-16.933
				c1.835-2.279,3.364-4.177,4.434-5.507c1.105-1.301,1.736-2.045,1.736-2.045L249.168,345.463c2.83,7.351,3.849,15.541,2.76,23.44
				c-0.266,1.981-0.674,3.938-1.189,5.888c-0.496,1.964-1.121,3.903-1.879,5.804C247.354,384.403,245.276,388.028,242.713,391.466z"
				/>
			<path fill="#2BADF7" d="M233.835,332.674c4.086,3.409,7.226,7.549,9.441,12.074c2.226,4.536,3.583,9.502,4.001,14.532
				c0.211,2.518,0.193,5.056-0.06,7.58c-0.126,1.262-0.311,2.52-0.555,3.77c-0.236,1.256-0.51,2.522-0.855,3.766
				c-1.359,4.995-3.709,9.768-7,14.158c-3.236,4.432-7.184,8.015-11.584,10.744c-4.337,2.773-9.092,4.717-14.054,5.742
				c-2.478,0.514-5,0.803-7.531,0.856c-2.525,0.057-5.024-0.099-7.517-0.517c-4.975-0.832-9.843-2.658-14.278-5.598
				c-4.435-2.941-8.015-6.724-10.657-11.093c-1.316-2.181-2.419-4.522-3.243-6.948c-0.819-2.422-1.391-4.952-1.712-7.552
				c-0.637-5.195-0.287-10.691,1.144-16.108c1.493-5.371,4.033-10.688,7.619-15.589c3.64-4.86,8.054-8.779,12.775-11.743
				c1.186-0.737,2.382-1.422,3.616-2.027c1.242-0.599,2.5-1.136,3.769-1.609c2.538-0.947,5.121-1.64,7.708-2.072
				c5.18-0.86,10.354-0.692,15.288,0.587C225.098,326.915,229.749,329.265,233.835,332.674z"/>
		</g>
		<g>
			<path fill="#4B2B4F" d="M296.693,327.229c-2.923,3.137-6.182,5.765-9.683,7.898c-3.482,2.15-7.127,3.875-10.957,5.065
				c-3.808,1.21-7.809,1.882-11.744,2.134c-3.943,0.245-7.921-0.016-11.814-0.801l133.339,112.788c0,0,0.629-0.745,1.731-2.049
				c1.103-1.303,2.652-3.186,4.62-5.353c1.941-2.19,4.206-4.744,6.632-7.481c2.49-2.679,5.146-5.538,7.802-8.396
				c0.665-0.714,1.329-1.428,1.991-2.139c0.68-0.694,1.358-1.385,2.03-2.071c1.342-1.374,2.663-2.725,3.941-4.034
				c1.278-1.308,2.514-2.572,3.686-3.771c1.201-1.17,2.337-2.275,3.385-3.296c2.093-2.046,3.836-3.751,5.057-4.944
				c1.209-1.206,1.94-1.853,1.94-1.853L308.413,282.263c1.997,7.67,2.035,15.897,0.025,23.603c-1.03,3.832-2.418,7.694-4.39,11.269
				c-0.977,1.796-2.082,3.539-3.317,5.216c-0.615,0.841-1.271,1.657-1.945,2.47C298.121,325.641,297.424,326.445,296.693,327.229z"
				/>
			<path fill="#5B49B5" d="M294.668,267.782c7.297,7.704,10.606,17.915,10.277,27.997c-0.174,5.041-1.285,10.04-3.204,14.853
				c-0.974,2.392-2.178,4.71-3.618,6.92c-1.445,2.205-3.119,4.309-4.972,6.332c-3.728,4.026-8.115,7.079-12.758,9.318
				c-4.617,2.26-9.592,3.615-14.641,4.054c-5.073,0.417-10.102,0.02-14.963-1.397c-4.849-1.409-9.474-3.791-13.537-7.227
				c-4.064-3.436-7.176-7.608-9.289-12.25c-2.102-4.631-3.258-9.781-3.259-14.992c-0.027-5.23,0.983-10.623,3.021-15.846
				c2.062-5.199,5.251-10.137,9.38-14.587c2.053-2.235,4.315-4.174,6.686-5.859c2.365-1.691,4.832-3.134,7.358-4.322
				c5.024-2.406,10.394-3.678,15.642-3.926C277.287,256.337,287.327,260.031,294.668,267.782z"/>
		</g>
		<g>
			<path fill="#A5654D" d="M357.751,269.686c-3.27,2.774-6.836,4.978-10.545,6.708c-3.673,1.771-7.531,3.019-11.471,3.761
				c-1.97,0.371-3.96,0.615-5.957,0.733c-1.991,0.125-3.96,0.156-5.939,0.042c-3.95-0.22-7.876-0.945-11.655-2.181l119.357,127.492
				c0,0,0.714-0.664,1.964-1.827c1.26-1.151,3.006-2.855,5.194-4.799c2.189-1.942,4.743-4.207,7.479-6.634
				c1.352-1.232,2.8-2.447,4.271-3.681c1.466-1.239,2.956-2.499,4.446-3.758c2.948-2.557,6.008-4.976,8.857-7.269
				c2.849-2.293,5.485-4.462,7.833-6.208c4.641-3.562,7.735-5.937,7.735-5.937L374.601,226.364c1.13,7.899,0.17,16.021-2.724,23.439
				c-1.415,3.753-3.289,7.37-5.657,10.698c-1.183,1.666-2.486,3.264-3.911,4.783C360.895,266.815,359.393,268.307,357.751,269.686z"
				/>
			<path fill="#67A9F7" d="M362.629,210.386c6.372,8.525,8.472,19.05,6.958,29.004c-0.376,2.497-1.003,4.933-1.815,7.35
				c-0.806,2.426-1.834,4.785-3.083,7.043c-2.493,4.523-5.909,8.589-10.067,12.171c-2.096,1.771-4.315,3.295-6.626,4.578
				c-1.155,0.643-2.337,1.221-3.53,1.748c-1.18,0.544-2.378,1.028-3.593,1.453c-4.857,1.7-9.963,2.459-15.036,2.301
				c-10.054-0.235-20.007-4.091-27.297-11.86c-7.276-7.754-10.417-18.044-9.315-28.524c0.587-5.19,2.224-10.42,4.862-15.362
				c0.659-1.235,1.381-2.453,2.164-3.646c0.797-1.177,1.664-2.322,2.586-3.442c1.847-2.238,3.936-4.358,6.255-6.317
				c4.605-3.957,9.832-6.718,15.129-8.489c2.652-0.883,5.332-1.506,7.998-1.87c2.673-0.355,5.37-0.405,7.988-0.227
				C346.711,197.026,356.257,201.861,362.629,210.386z"/>
		</g>
		<g>
			<path fill="#C7511F" d="M425.082,219.612c-1.791,1.179-3.635,2.215-5.52,3.112c-0.942,0.449-1.896,0.861-2.856,1.244
				c-0.949,0.399-1.906,0.764-2.872,1.094c-3.861,1.323-7.845,2.106-11.851,2.377c-4.025,0.244-7.983,0.1-11.893-0.592
				c-3.903-0.683-7.722-1.865-11.336-3.535l103.748,140.487c0,0,3.149-2.3,7.874-5.749c4.82-3.31,11.155-7.864,17.719-12.073
				c1.627-1.074,3.253-2.147,4.855-3.204c1.614-1.036,3.228-2.015,4.775-2.987c3.11-1.917,5.969-3.779,8.487-5.262
				c5.032-2.974,8.386-4.956,8.386-4.956l-87.722-151.013c0.204,7.984-1.738,15.87-5.443,22.958
				C437.773,208.687,432.198,214.827,425.082,219.612z"/>
			<path fill="#ED3359" d="M436.847,161.29c5.336,9.21,6.185,19.896,3.509,29.587c-0.335,1.214-0.73,2.405-1.173,3.591
				c-0.435,1.197-0.925,2.375-1.468,3.53c-1.086,2.31-2.387,4.528-3.894,6.619c-1.508,2.092-3.224,4.055-5.143,5.862
				c-1.888,1.855-3.979,3.553-6.271,5.062c-2.293,1.509-4.679,2.757-7.129,3.757c-2.451,0.998-4.908,1.832-7.431,2.377
				c-5.022,1.124-10.217,1.238-15.208,0.535c-9.948-1.384-19.412-6.404-25.745-14.958c-6.332-8.554-8.231-19.105-5.928-29.405
				c1.157-5.129,3.426-10.088,6.622-14.691c1.61-2.284,3.427-4.515,5.529-6.516c2.1-2.002,4.428-3.86,6.965-5.529
				c2.537-1.669,5.163-3.072,7.832-4.208c2.7-1.089,5.445-1.911,8.186-2.474c2.742-0.563,5.481-0.865,8.176-0.911
				c1.348-0.023,2.684,0.017,4.004,0.121c1.328,0.115,2.647,0.306,3.94,0.55C422.585,146.155,431.512,152.081,436.847,161.29z"/>
		</g>
	</g>
	<g>
		<g>
			<path fill="#490543" d="M495.562,178.821c-3.861,1.871-7.772,3.331-11.779,4.172c-3.99,0.871-8.08,1.12-12.061,0.993
				c-7.963-0.268-15.823-2.613-22.628-6.742l87.197,151.317c0,0,0.21-0.123,0.604-0.353c0.399-0.222,0.984-0.547,1.729-0.962
				c1.488-0.831,3.614-2.018,6.164-3.443c1.275-0.713,2.656-1.486,4.117-2.303c1.481-0.779,3.043-1.6,4.659-2.45
				c1.614-0.853,3.282-1.734,4.977-2.629c0.848-0.446,1.703-0.896,2.561-1.348c0.869-0.43,1.742-0.861,2.614-1.293
				c3.495-1.717,6.963-3.489,10.251-5.073c3.308-1.543,6.395-2.983,9.041-4.217c2.63-1.269,4.878-2.201,6.436-2.889
				c1.561-0.682,2.452-1.071,2.452-1.071l-69.996-160.002c-0.361,3.956-1.248,7.844-2.611,11.554
				c-1.373,3.689-3.155,7.343-5.405,10.647c-2.237,3.33-4.927,6.346-7.99,9.054C502.852,174.533,499.403,176.911,495.562,178.821z"
				/>
			<path fill="#094DE5" d="M513.899,122.236c2.132,4.876,3.093,9.99,3.056,15.04c-0.03,5.069-1.094,9.992-2.942,14.739
				c-1.864,4.717-4.583,9.101-8.069,12.884c-3.481,3.797-7.652,7.149-12.577,9.575c-1.229,0.611-2.474,1.155-3.731,1.634
				c-1.244,0.504-2.499,0.946-3.764,1.322c-2.529,0.753-5.094,1.25-7.664,1.504c-2.567,0.26-5.154,0.254-7.69,0.059
				c-2.526-0.177-5.027-0.586-7.469-1.22c-9.75-2.535-18.613-8.637-23.923-17.826c-5.34-9.242-6.005-19.896-2.528-29.836
				c0.868-2.482,1.991-4.915,3.358-7.262c1.376-2.329,3.02-4.526,4.878-6.617c1.861-2.086,3.949-4.044,6.246-5.833
				c1.149-0.894,2.348-1.748,3.599-2.551c1.264-0.778,2.577-1.508,3.937-2.186c5.451-2.691,11.092-4.361,16.678-4.841
				c5.594-0.467,11.056,0.099,16.065,1.614c4.996,1.483,9.612,4.072,13.45,7.403C508.657,113.186,511.766,117.36,513.899,122.236z"
				/>
		</g>
		<g>
			<path fill="#29E99F" d="M572.58,145.419c-4.022,1.492-8.099,2.428-12.182,2.785c-2.04,0.182-4.078,0.225-6.103,0.137
				c-2.012-0.055-4.008-0.23-5.983-0.539c-7.884-1.213-15.447-4.533-21.685-9.342l68.875,160.488c0,0,0.891-0.392,2.45-1.077
				c1.576-0.644,3.828-1.563,6.53-2.667c5.374-2.285,12.667-5.003,19.944-7.76c3.67-1.292,7.34-2.583,10.781-3.794
				c1.712-0.631,3.398-1.148,4.987-1.666c1.59-0.515,3.094-1.003,4.482-1.453c5.534-1.854,9.279-2.912,9.279-2.912L603.249,110.5
				c-0.82,3.897-2.182,7.579-3.949,11.177c-1.775,3.572-3.999,6.918-6.621,9.937C587.405,137.573,580.679,142.595,572.58,145.419z"
				/>
			<path fill="#2F1925" d="M597.452,91.395c3.082,10.201,1.415,20.674-3.379,29.614c-2.406,4.464-5.646,8.43-9.537,11.823
				c-3.88,3.431-8.448,6.184-13.626,8.011c-5.145,1.917-10.4,2.786-15.578,2.662c-2.595-0.078-5.138-0.325-7.628-0.8
				c-2.492-0.479-4.932-1.187-7.285-2.109c-4.703-1.838-9.077-4.558-12.79-7.987c-3.704-3.415-6.776-7.606-8.875-12.496
				c-2.099-4.89-3.022-10.02-2.839-15.13c0.188-5.094,1.51-10.101,3.821-14.821c1.156-2.357,2.562-4.634,4.199-6.797
				c1.635-2.168,3.501-4.219,5.607-6.044c4.198-3.682,9.233-6.774,14.933-8.893c5.734-2.03,11.566-2.94,17.148-2.83
				c5.597,0.147,10.979,1.419,15.778,3.513C587.008,73.278,594.377,81.219,597.452,91.395z"/>
		</g>
		<g>
			<path fill="#B96F45" d="M653.014,121.351c-4.168,1.016-8.339,1.42-12.438,1.279c-4.095-0.127-8.088-0.674-11.946-1.783
				c-3.851-1.084-7.559-2.695-10.997-4.674c-3.431-1.956-6.615-4.354-9.438-7.145L657.728,276.5c0,0,0.932-0.278,2.563-0.765
				c0.815-0.244,1.805-0.541,2.941-0.881c1.144-0.31,2.435-0.661,3.843-1.043c2.816-0.764,6.102-1.655,9.622-2.61
				c3.544-0.866,7.324-1.79,11.104-2.714c0.945-0.233,1.889-0.465,2.83-0.697c0.947-0.205,1.891-0.409,2.827-0.611
				c1.872-0.406,3.714-0.807,5.497-1.194c1.782-0.391,3.505-0.768,5.138-1.127c1.643-0.316,3.196-0.614,4.63-0.889
				c5.735-1.103,9.558-1.839,9.558-1.839L687.554,90.212c-2.543,7.569-7.052,14.401-12.972,19.736
				c-2.963,2.665-6.253,5.107-9.867,7.011C661.108,118.904,657.172,120.29,653.014,121.351z"/>
			<path fill="#D1731F" d="M684.041,70.558c1.86,10.48-0.997,20.832-6.825,29.052c-1.46,2.056-3.11,3.979-4.93,5.74
				c-1.814,1.789-3.79,3.455-5.921,4.911c-2.131,1.461-4.413,2.733-6.833,3.787c-1.21,0.527-2.454,0.999-3.731,1.412
				c-1.273,0.432-2.573,0.827-3.908,1.15c-5.331,1.313-10.676,1.461-15.792,0.772c-5.102-0.643-10.006-2.24-14.47-4.643
				c-4.47-2.432-8.467-5.554-11.749-9.389c-3.281-3.836-5.84-8.364-7.35-13.468c-1.51-5.103-1.821-10.3-1.035-15.343
				c0.784-5.043,2.659-9.954,5.525-14.315c2.856-4.39,6.67-8.346,11.25-11.598c4.591-3.205,9.978-5.587,15.885-7.036
				c1.478-0.356,2.951-0.653,4.422-0.861c1.475-0.189,2.943-0.31,4.398-0.366c2.91-0.111,5.77,0.041,8.538,0.438
				c2.769,0.401,5.444,1.028,7.996,1.916c2.558,0.916,4.985,2.055,7.248,3.396C675.823,51.475,682.181,60.079,684.041,70.558z"/>
		</g>
		<g>
			<path fill="#4909F1" d="M735.694,106.886c-8.529,0.888-16.745-0.252-24.153-3.4c-3.706-1.597-7.177-3.493-10.36-5.872
				c-3.18-2.364-6.062-5.135-8.54-8.251l29.527,172.129c0,0,3.842-0.639,9.605-1.597c2.894-0.407,6.27-0.882,9.887-1.391
				c1.81-0.244,3.674-0.543,5.579-0.767c1.907-0.216,3.844-0.435,5.781-0.653c7.734-0.986,15.523-1.541,21.347-2.1
				c5.844-0.377,9.74-0.628,9.74-0.628l-10.5-174.327c-1.701,3.594-3.873,6.944-6.429,9.964c-1.278,1.51-2.653,2.937-4.114,4.272
				c-1.46,1.361-3.005,2.649-4.629,3.825c-3.247,2.357-6.806,4.305-10.617,5.761c-1.907,0.709-3.872,1.359-5.893,1.886
				C739.903,106.256,737.824,106.643,735.694,106.886z"/>
			<path fill="#C333ED" d="M772.406,60.099c0.628,10.627-3.413,20.532-10.157,27.96c-3.374,3.797-7.436,6.99-12.009,9.356
				c-2.285,1.203-4.707,2.115-7.225,2.945c-2.521,0.804-5.152,1.375-7.879,1.687c-2.727,0.312-5.42,0.349-8.058,0.136
				c-2.633-0.171-5.208-0.563-7.706-1.202c-4.992-1.255-9.685-3.499-13.828-6.364c-8.267-5.706-14.467-14.443-16.279-24.931
				c-1.811-10.487,1.238-20.767,7.932-28.936c3.341-4.069,7.6-7.468,12.528-10.141c2.465-1.324,5.097-2.468,7.869-3.35
				c2.777-0.839,5.691-1.447,8.708-1.792c3.017-0.345,5.993-0.412,8.889-0.222c2.893,0.163,5.718,0.733,8.417,1.451
				c5.402,1.475,10.324,3.875,14.496,7.012C766.47,40.147,771.778,49.476,772.406,60.099z"/>
		</g>
		<g>
			<path fill="#A1B719" d="M819.439,102.077c-4.285,0.021-8.43-0.501-12.38-1.568c-1.975-0.53-3.901-1.189-5.77-1.968
				c-1.869-0.786-3.68-1.603-5.425-2.58c-6.976-3.843-12.921-9.547-17.115-16.255l9.299,174.395c0,0,0.244-0.016,0.7-0.046
				c0.456-0.036,1.126-0.07,1.981-0.095c1.708-0.063,4.149-0.154,7.078-0.263c5.852-0.316,13.681-0.316,21.503-0.428
				c3.911,0.051,7.823,0.102,11.49,0.15c0.917,0.01,1.818,0.019,2.701,0.029c0.881,0.035,1.743,0.07,2.582,0.104
				c1.678,0.065,3.264,0.127,4.729,0.184c2.929,0.108,5.37,0.197,7.078,0.26c1.705,0.108,2.679,0.17,2.679,0.17l9.599-174.379
				c-1.051,1.678-2.211,3.279-3.47,4.797c-1.259,1.544-2.617,3.007-4.06,4.378c-2.888,2.742-6.119,5.117-9.613,7.048
				c-1.747,0.965-3.56,1.82-5.429,2.554c-1.87,0.77-3.798,1.435-5.773,1.963C827.87,101.585,823.724,102.129,819.439,102.077z"/>
			<path fill="#39E779" d="M861.265,59.85c-0.293,5.314-1.737,10.303-4.042,14.779c-2.308,4.522-5.477,8.557-9.26,11.903
				c-1.892,1.673-3.938,3.174-6.112,4.479c-2.174,1.306-4.476,2.394-6.883,3.36c-4.814,1.887-10.042,2.9-15.525,2.834
				c-5.483,0.035-10.709-0.956-15.52-2.85c-1.203-0.472-2.379-0.998-3.526-1.577c-1.147-0.567-2.265-1.159-3.351-1.815
				c-2.172-1.305-4.215-2.806-6.104-4.48c-3.777-3.347-6.939-7.381-9.239-11.906c-2.299-4.535-3.733-9.483-4.017-14.81
				c-0.284-5.301,0.617-10.479,2.548-15.16c1.929-4.691,4.887-8.962,8.672-12.596c1.892-1.817,3.991-3.474,6.265-4.944
				c1.137-0.731,2.319-1.431,3.54-2.053c1.222-0.611,2.483-1.171,3.781-1.676c5.189-2.015,10.958-3.187,17.017-3.222
				c6.058,0.066,11.826,1.218,17.012,3.241c2.593,0.988,5.043,2.292,7.315,3.761c2.273,1.47,4.368,3.128,6.257,4.945
				c3.779,3.635,6.73,7.905,8.651,12.598C860.666,49.401,861.559,54.537,861.265,59.85z"/>
		</g>
		<g>
			<path fill="#C9513F" d="M903.177,107.028c-4.262-0.474-8.311-1.58-12.118-3.068c-3.809-1.456-7.365-3.405-10.609-5.761
				c-6.479-4.777-11.749-10.871-15.14-18.09L854.51,254.419c0,0,0.974,0.062,2.679,0.169c1.703,0.13,4.146,0.207,7.058,0.485
				c2.914,0.259,6.315,0.562,9.957,0.886c0.911,0.08,1.837,0.161,2.775,0.242c0.934,0.109,1.879,0.219,2.833,0.33
				c1.906,0.219,3.843,0.441,5.779,0.664c1.937,0.22,3.874,0.441,5.78,0.658c1.899,0.269,3.768,0.533,5.576,0.789
				c3.614,0.529,7.003,0.928,9.882,1.417c5.763,0.956,9.605,1.594,9.605,1.594l29.827-172.077
				c-4.974,6.247-11.531,11.042-18.924,14.087c-3.705,1.561-7.619,2.655-11.665,3.211c-2.025,0.287-4.078,0.404-6.164,0.441
				C907.42,107.365,905.307,107.272,903.177,107.028z"/>
			<path fill="#95D9F5" d="M949.671,69.903c-1.83,10.485-8.047,19.218-16.325,24.921c-1.037,0.713-2.106,1.377-3.206,1.994
				c-1.103,0.638-2.235,1.227-3.394,1.763c-2.317,1.073-4.739,1.939-7.238,2.574c-2.5,0.635-5.077,1.04-7.709,1.192
				c-2.634,0.172-5.331,0.164-8.057-0.157c-10.885-1.35-20.346-6.404-27.091-14.019c-6.728-7.488-10.755-17.35-10.108-27.989
				c0.645-10.608,5.972-19.979,14.347-26.356c8.342-6.254,19.747-9.692,31.818-8.202c3.016,0.355,5.932,0.934,8.704,1.815
				c2.769,0.901,5.401,2.032,7.864,3.361c2.463,1.329,4.757,2.856,6.852,4.551c1.048,0.847,2.046,1.737,2.991,2.664
				c0.943,0.948,1.832,1.937,2.665,2.957C948.469,49.141,951.501,59.419,949.671,69.903z"/>
		</g>
	</g>
	<g>
		<g>
			<path fill="#D3D751" d="M983.402,121.055c-2.08-0.527-4.109-1.114-6.065-1.833c-1.955-0.721-3.839-1.568-5.645-2.529
				c-3.616-1.904-6.908-4.354-9.882-6.983c-5.93-5.324-10.441-12.197-13.006-19.712L918.377,261.97c0,0,15.337,2.741,30.496,6.282
				c3.781,0.922,7.561,1.843,11.105,2.707c3.522,0.95,6.809,1.836,9.626,2.596c2.82,0.751,5.168,1.384,6.791,1.898
				c1.631,0.487,2.563,0.766,2.563,0.766l49.24-167.558c-2.819,2.797-5.993,5.184-9.425,7.16c-3.445,2.019-7.141,3.604-10.99,4.697
				c-1.925,0.547-3.889,0.971-5.88,1.265c-0.996,0.147-1.998,0.261-3.007,0.342c-1.014,0.103-2.034,0.172-3.058,0.208
				C991.74,122.475,987.57,122.07,983.402,121.055z"/>
			<path fill="#455F55" d="M1033.827,89.505c-1.501,5.106-4.052,9.637-7.325,13.475c-1.638,1.922-3.453,3.659-5.419,5.228
				c-1.972,1.589-4.089,2.994-6.318,4.196c-4.458,2.405-9.357,4.004-14.456,4.648c-5.127,0.748-10.46,0.559-15.795-0.741
				c-2.661-0.678-5.229-1.469-7.647-2.532c-2.421-1.053-4.704-2.325-6.837-3.787c-4.255-2.966-7.945-6.508-10.872-10.623
				c-5.84-8.222-8.713-18.584-6.877-29.032c1.848-10.518,8.188-19.117,17.241-24.484c4.519-2.681,9.71-4.595,15.236-5.348
				c2.767-0.398,5.625-0.551,8.535-0.441c2.907,0.121,5.878,0.45,8.826,1.196c5.91,1.435,11.289,3.857,15.898,7.004
				c4.584,3.251,8.403,7.208,11.265,11.598c1.432,2.195,2.625,4.499,3.56,6.879c0.93,2.4,1.597,4.892,1.994,7.412
				C1035.631,79.2,1035.328,84.399,1033.827,89.505z"/>
		</g>
		<g>
			<path fill="#E777EF" d="M1063.871,145.004c-8.091-2.849-14.84-7.812-20.12-13.78c-2.625-3.02-4.853-6.367-6.633-9.939
				c-1.789-3.542-3.144-7.267-3.974-11.153L982.731,277.34c0,0,0.932,0.276,2.565,0.759c1.641,0.456,3.949,1.222,6.722,2.128
				c2.771,0.915,6.022,1.927,9.477,3.094c3.44,1.212,7.11,2.505,10.779,3.798c3.664,1.309,7.277,2.756,10.696,4.03
				c3.427,1.253,6.563,2.581,9.266,3.683c2.703,1.101,4.955,2.019,6.532,2.661c0.792,0.311,1.398,0.598,1.817,0.777
				c0.418,0.184,0.64,0.282,0.64,0.282l68.594-160.609c-3.115,2.415-6.569,4.464-10.223,6.056c-3.652,1.586-7.502,2.71-11.447,3.326
				c-3.932,0.583-8.012,0.795-12.089,0.433C1071.975,147.416,1067.914,146.44,1063.871,145.004z"/>
			<path fill="#CF5339" d="M1117.661,119.583c-2.093,4.9-5.148,9.076-8.857,12.52c-3.717,3.46-8.076,6.163-12.776,8.01
				c-9.388,3.621-20.208,4.122-30.495,0.311c-5.178-1.827-9.748-4.579-13.631-8.011c-3.913-3.338-7.144-7.346-9.561-11.799
				c-1.208-2.225-2.213-4.558-2.995-6.966c-0.784-2.4-1.357-4.839-1.676-7.346c-0.641-5.003-0.299-10.191,1.237-15.287
				c1.535-5.095,4.126-9.614,7.55-13.404c1.71-1.89,3.634-3.621,5.721-5.11c2.085-1.481,4.344-2.758,6.743-3.814
				c4.797-2.109,10.162-3.344,15.775-3.548c5.58-0.112,11.411,0.796,17.145,2.824c11.419,4.221,20.183,12.187,24.781,21.68
				c2.32,4.715,3.64,9.744,3.847,14.813C1120.671,109.544,1119.749,114.695,1117.661,119.583z"/>
		</g>
		<g>
			<path fill="#9DC5EB" d="M1140.949,178.265c-3.842-1.907-7.288-4.294-10.339-7.033c-3.084-2.669-5.762-5.715-8.007-9.037
				c-4.461-6.699-7.33-14.244-8.056-22.185l-69.716,160.125c0,0,0.891,0.39,2.452,1.072c0.78,0.34,1.728,0.754,2.815,1.228
				c1.09,0.467,2.316,1.004,3.631,1.638c2.646,1.235,5.732,2.676,9.039,4.221c1.665,0.747,3.342,1.613,5.059,2.465
				c1.716,0.853,3.459,1.72,5.203,2.586c3.511,1.686,6.932,3.549,10.164,5.248c3.23,1.702,6.258,3.266,8.788,4.73
				c5.102,2.848,8.503,4.747,8.503,4.747l86.933-151.469c-6.81,4.162-14.65,6.494-22.611,6.772
				c-4.005,0.179-8.073-0.104-12.067-0.963c-1.999-0.426-3.984-0.99-5.943-1.698
				C1144.836,180.006,1142.865,179.229,1140.949,178.265z"/>
			<path fill="#8DFB31" d="M1197.356,159.284c-5.309,9.225-14.147,15.317-23.89,17.864c-2.442,0.641-4.93,1.034-7.469,1.238
				c-2.548,0.22-5.122,0.21-7.692-0.043c-5.146-0.494-10.227-2.034-15.168-4.43c-2.458-1.222-4.738-2.656-6.833-4.27
				c-1.048-0.807-2.05-1.659-3.005-2.552c-0.961-0.881-1.886-1.779-2.757-2.728c-3.489-3.784-6.213-8.17-8.083-12.889
				c-3.764-9.348-4.187-19.991,0.058-29.769c4.23-9.748,12.449-16.734,22.509-19.85c5.004-1.518,10.462-2.088,16.054-1.623
				c1.396,0.119,2.807,0.29,4.209,0.55c1.396,0.272,2.794,0.61,4.189,1.015c2.791,0.81,5.569,1.889,8.29,3.244
				c5.467,2.661,10.07,6.383,13.802,10.542c1.863,2.086,3.499,4.301,4.891,6.606c1.383,2.322,2.499,4.774,3.373,7.251
				C1203.326,139.379,1202.664,150.06,1197.356,159.284z"/>
		</g>
		<g>
			<path fill="#B7278D" d="M1213.592,220.299c-1.791-1.179-3.471-2.463-5.041-3.839c-0.785-0.687-1.54-1.402-2.272-2.13
				c-0.742-0.714-1.455-1.449-2.141-2.205c-2.742-3.023-5.037-6.373-6.871-9.945c-1.816-3.6-3.251-7.293-4.162-11.158
				c-0.918-3.855-1.344-7.83-1.24-11.811l-87.985,150.86c0,0,3.355,1.981,8.388,4.953c2.48,1.547,5.374,3.351,8.474,5.284
				c3.126,1.892,6.36,4.07,9.617,6.212c1.629,1.07,3.259,2.139,4.863,3.192c1.591,1.072,3.129,2.169,4.635,3.205
				c2.992,2.1,5.833,3.989,8.194,5.716c4.725,3.448,7.876,5.746,7.876,5.746l103.992-140.307
				c-7.251,3.347-15.261,4.683-23.235,4.085C1228.645,227.633,1220.801,224.943,1213.592,220.299z"/>
			<path fill="#5377D7" d="M1271.806,208.032c-6.348,8.544-15.825,13.553-25.782,14.929c-1.247,0.173-2.498,0.281-3.761,0.344
				c-1.271,0.074-2.547,0.09-3.822,0.048c-2.551-0.084-5.102-0.401-7.619-0.959c-2.517-0.557-4.999-1.358-7.418-2.404
				c-2.45-1-4.837-2.249-7.129-3.758c-2.292-1.509-4.383-3.207-6.27-5.062c-1.887-1.855-3.624-3.784-5.123-5.885
				c-3.019-4.169-5.179-8.895-6.508-13.758c-2.666-9.685-1.801-20.364,3.551-29.564c5.351-9.2,14.292-15.116,24.667-17.074
				c5.17-0.965,10.623-0.842,16.116,0.274c2.735,0.575,5.503,1.364,8.173,2.501c2.67,1.138,5.296,2.541,7.832,4.211
				c2.536,1.67,4.863,3.528,6.962,5.53c2.068,2.048,3.907,4.244,5.508,6.539c1.6,2.295,2.961,4.691,4.069,7.148
				c0.554,1.228,1.045,2.472,1.472,3.726c0.419,1.264,0.765,2.551,1.052,3.835C1280.066,188.947,1278.153,199.489,1271.806,208.032z
				"/>
		</g>
		<g>
			<path fill="#43B395" d="M1280.832,270.492c-1.637-1.384-3.152-2.859-4.547-4.414c-1.408-1.538-2.722-3.122-3.9-4.792
				c-2.364-3.331-4.245-6.934-5.643-10.703c-2.867-7.441-3.833-15.538-2.689-23.436l-104.961,139.583c0,0,3.095,2.374,7.737,5.934
				c0.581,0.444,1.187,0.906,1.813,1.385c0.614,0.495,1.248,1.007,1.901,1.533c1.305,1.052,2.68,2.162,4.104,3.31
				c1.426,1.145,2.898,2.328,4.395,3.531c1.467,1.239,2.957,2.498,4.446,3.757c6.017,4.969,11.786,10.226,16.183,14.089
				c4.285,3.987,7.141,6.645,7.141,6.645l119.577-127.285c-3.783,1.232-7.713,1.953-11.666,2.169
				c-1.977,0.108-3.96,0.089-5.935-0.056c-1.978-0.142-3.984-0.372-5.951-0.749c-3.942-0.744-7.802-1.995-11.476-3.767
				C1287.687,275.45,1284.093,273.276,1280.832,270.492z"/>
			<path fill="#871333" d="M1340.06,265.076c-7.297,7.749-17.282,11.615-27.316,11.811c-10.173,0.311-20.337-3.119-28.775-10.123
				c-2.102-1.763-3.953-3.725-5.637-5.755c-1.69-2.022-3.159-4.179-4.407-6.436c-2.5-4.507-4.085-9.462-4.869-14.407
				c-1.504-9.947,0.609-20.462,6.997-28.976c6.386-8.514,15.945-13.339,26.458-14.059c5.277-0.397,10.667,0.368,15.978,2.131
				c2.652,0.884,5.276,2.027,7.827,3.428c2.544,1.408,4.96,3.139,7.285,5.09c9.348,7.769,14.659,18.433,15.824,28.787
				C1350.489,247.071,1347.355,257.328,1340.06,265.076z"/>
		</g>
		<g>
			<path fill="#F10F61" d="M1341.788,328.143c-2.894-3.165-5.38-6.521-7.332-10.113c-1.964-3.58-3.373-7.418-4.363-11.284
				c-1.995-7.711-1.979-15.901,0.067-23.604l-120.454,126.456c0,0,2.792,2.726,6.979,6.815c1.042,1.027,2.196,2.115,3.374,3.307
				c1.17,1.201,2.404,2.468,3.68,3.778c2.542,2.63,5.326,5.367,7.944,8.261c2.641,2.872,5.35,5.682,7.784,8.412
				c2.427,2.736,4.693,5.29,6.635,7.479c0.486,0.546,0.953,1.07,1.396,1.568c0.429,0.51,0.837,0.994,1.22,1.448
				c0.766,0.909,1.435,1.701,1.985,2.353c1.102,1.303,1.731,2.048,1.731,2.048l133.534-112.557
				c-7.81,1.571-15.868,0.989-23.554-1.375c-3.824-1.202-7.5-2.902-10.941-5.091C1347.971,333.91,1344.71,331.281,1341.788,328.143z
				"/>
			<path fill="#5B651D" d="M1401.234,329.643c-8.16,6.863-18.472,9.497-28.509,8.569c-5.053-0.444-10.03-1.802-14.649-4.065
				c-2.293-1.147-4.562-2.463-6.706-4.009c-2.142-1.549-4.164-3.325-6.034-5.333c-3.7-4.054-6.64-8.468-8.565-13.27
				c-0.974-2.39-1.712-4.859-2.229-7.359c-0.546-2.471-0.861-4.985-0.944-7.504c-0.327-10.066,3.01-20.281,10.332-27.986
				c7.342-7.726,17.379-11.392,27.891-10.877c2.625,0.127,5.276,0.514,7.912,1.157c2.607,0.672,5.189,1.612,7.717,2.801
				c5.033,2.399,9.925,5.729,14.024,10.207c2.069,2.22,3.892,4.573,5.46,7.015c1.57,2.44,2.891,4.964,3.892,7.59
				c2.034,5.222,3.04,10.612,3.008,15.838C1413.722,312.933,1409.365,322.805,1401.234,329.643z"/>
		</g>
	</g>
	<g>
		<g>
			<path fill="#236313" d="M1394.179,390.458c-2.607-3.404-4.654-7.054-6.171-10.858c-0.765-1.896-1.37-3.853-1.897-5.795
				c-0.529-1.939-0.928-3.905-1.199-5.885c-0.542-3.959-0.571-7.974-0.101-11.933c0.489-3.973,1.37-7.802,2.818-11.51
				l-133.922,112.095c0,0,2.56,2.946,6.189,7.536c0.918,1.139,1.913,2.372,2.964,3.677c1.056,1.302,2.174,2.671,3.267,4.137
				c2.226,2.901,4.6,5.995,6.974,9.089c2.297,3.151,4.594,6.303,6.747,9.257c1.096,1.463,2.095,2.921,3.044,4.301
				c0.954,1.377,1.855,2.679,2.688,3.881c3.375,4.777,5.476,8.061,5.476,8.061l145.379-96.774c-3.967,0.34-7.887,0.101-11.839-0.551
				c-3.93-0.668-7.773-1.832-11.418-3.47c-1.823-0.819-3.596-1.758-5.306-2.814c-1.716-1.053-3.42-2.187-5.023-3.456
				C1399.631,396.916,1396.709,393.92,1394.179,390.458z"/>
			<path fill="#03B173" d="M1453.057,398.675c-8.877,5.895-19.387,7.326-29.324,5.316c-4.969-1.013-9.689-2.977-14.07-5.713
				c-4.399-2.726-8.345-6.307-11.583-10.738c-3.336-4.357-5.655-9.155-7.027-14.145c-1.388-4.975-1.936-10.058-1.503-15.11
				c0.882-10.1,5.225-19.773,13.389-26.623c8.143-6.832,18.651-9.447,28.966-7.69c5.156,0.87,10.36,2.737,15.109,5.677
				c4.731,2.953,9.112,6.894,12.798,11.72c3.588,4.899,6.13,10.217,7.626,15.59c1.48,5.386,1.8,10.909,1.178,16.101
				C1467.388,383.454,1461.914,392.795,1453.057,398.675z"/>
		</g>
		<g>
			<path fill="#E72B99" d="M1440.417,460.493c-2.181-3.693-3.778-7.564-4.832-11.526c-0.512-1.99-0.942-3.969-1.241-5.958
				c-0.296-1.991-0.458-3.994-0.493-5.995c-0.073-3.999,0.387-8.005,1.303-11.875c0.882-3.848,2.26-7.587,4.118-11.095
				l-146.047,95.762c0,0,0.536,0.814,1.475,2.237c0.47,0.711,1.041,1.575,1.696,2.566c0.628,1.008,1.336,2.145,2.108,3.386
				c1.548,2.479,3.354,5.372,5.289,8.471c1.858,3.145,3.84,6.5,5.822,9.855c1.016,1.663,1.938,3.379,2.876,5.051
				c0.936,1.674,1.856,3.321,2.747,4.915c0.881,1.599,1.783,3.118,2.552,4.605c0.779,1.481,1.516,2.881,2.195,4.174
				c1.365,2.582,2.503,4.734,3.299,6.24c0.407,0.749,0.698,1.351,0.9,1.761c0.202,0.409,0.31,0.627,0.31,0.627l155.686-79.134
				c-7.899-0.287-15.821-2.586-22.636-6.712c-3.386-2.078-6.665-4.525-9.549-7.425c-1.446-1.448-2.804-3.003-4.063-4.663
				C1442.677,464.1,1441.525,462.329,1440.417,460.493z"/>
			<path fill="#F75D97" d="M1497.98,475.515c-4.753,2.415-9.767,3.652-14.832,3.919c-5.07,0.268-10.146-0.457-14.934-2.058
				c-9.524-3.247-18.135-9.809-23.582-19.327c-2.796-4.723-4.51-9.778-5.301-14.889c-0.86-5.067-0.749-10.219,0.261-15.184
				c0.5-2.478,1.249-4.924,2.174-7.256c0.922-2.33,2.067-4.578,3.43-6.701c2.727-4.247,6.324-8.003,10.774-10.922
				c4.45-2.919,9.336-4.717,14.39-5.423c2.527-0.353,5.095-0.434,7.67-0.248c2.571,0.187,5.102,0.671,7.622,1.398
				c5.028,1.462,9.917,3.964,14.353,7.403c4.365,3.481,8.229,7.928,11.32,13.159c6.048,10.553,7.645,22.282,5.077,32.509
				c-1.25,5.104-3.468,9.807-6.563,13.827C1506.738,469.745,1502.716,473.109,1497.98,475.515z"/>
		</g>
		<g>
			<path fill="#C915BB" d="M1478.171,535.462c-1.723-3.929-2.826-7.975-3.416-12.03c-0.651-4.027-0.749-8.081-0.338-12.071
				c0.881-8.002,3.516-15.624,8.062-22.182l-156.234,78.045c0,0,0.433,0.872,1.191,2.397c0.739,1.535,1.889,3.682,3.107,6.336
				c1.235,2.646,2.676,5.732,4.22,9.039c0.796,1.643,1.534,3.378,2.299,5.134c0.767,1.755,1.548,3.538,2.327,5.321
				c1.607,3.546,3.044,7.163,4.423,10.541c1.374,3.38,2.708,6.514,3.701,9.259c2.076,5.455,3.46,9.091,3.46,9.091l163.896-60.318
				c-7.892-1.183-15.398-4.432-21.676-9.333c-3.202-2.428-6.126-5.263-8.64-8.485c-1.259-1.611-2.418-3.318-3.466-5.118
				C1480.027,539.296,1479.024,537.431,1478.171,535.462z"/>
			<path fill="#85295D" d="M1533.607,557.131c-9.993,3.665-20.678,2.657-29.78-1.648c-2.287-1.076-4.433-2.378-6.527-3.845
				c-2.094-1.467-4.061-3.129-5.868-4.973c-3.622-3.686-6.541-8.125-8.789-13.135c-1.1-2.516-1.927-5.079-2.497-7.662
				c-0.285-1.292-0.507-2.588-0.666-3.886c-0.181-1.288-0.307-2.574-0.367-3.86c-0.246-5.142,0.481-10.254,2.077-15.073
				c3.106-9.581,9.622-18.016,19.151-22.79c9.503-4.761,20.281-4.841,30.001-0.778c4.811,2.048,9.361,5.115,13.349,9.06
				c0.996,0.987,1.961,2.026,2.879,3.121c0.896,1.105,1.751,2.262,2.56,3.469c1.619,2.414,3.057,5.025,4.274,7.811
				c2.482,5.552,3.634,11.36,3.82,16.95c0.089,2.797-0.079,5.547-0.492,8.21c-0.413,2.663-1.145,5.267-2.062,7.727
				C1550.965,545.699,1543.599,553.467,1533.607,557.131z"/>
		</g>
		<g>
			<path fill="#89319D" d="M1506.882,614.352c-2.364-8.247-2.682-16.536-0.869-24.387c0.459-1.964,1.003-3.883,1.648-5.752
				c0.654-1.872,1.427-3.702,2.314-5.475c1.774-3.546,4.002-6.87,6.638-9.856L1352.3,628.05c0,0,1.294,3.669,3.234,9.173
				c0.956,2.757,1.957,6.012,3.1,9.475c0.557,1.736,1.165,3.521,1.729,5.35c0.544,1.836,1.096,3.701,1.648,5.567
				c2.315,7.43,4.21,14.981,5.779,20.602c1.382,5.671,2.303,9.452,2.303,9.452l169.852-40.629c-3.838-1.052-7.518-2.611-10.94-4.605
				c-3.418-1.996-6.57-4.429-9.488-7.211c-2.889-2.789-5.431-5.956-7.531-9.457c-0.527-0.875-1.017-1.773-1.496-2.687
				c-0.491-0.91-0.954-1.841-1.386-2.791C1508.238,618.389,1507.494,616.408,1506.882,614.352z"/>
			<path fill="#096B53" d="M1559.362,642.396c-10.355,2.464-20.823,0.201-29.315-5.154c-4.303-2.671-8.177-6.113-11.301-10.208
				c-1.581-2.043-2.911-4.268-4.159-6.607c-1.231-2.344-2.253-4.836-3.037-7.468c-0.783-2.632-1.29-5.279-1.541-7.915
				c-0.303-2.62-0.357-5.228-0.165-7.8c0.36-5.136,1.773-10.159,3.842-14.73c4.18-9.141,11.703-16.778,21.713-20.395
				c10.009-3.617,20.66-2.408,29.866,2.763c4.619,2.572,8.687,6.185,12.185,10.574c1.737,2.198,3.313,4.596,4.677,7.171
				c1.312,2.592,2.42,5.359,3.287,8.274c0.868,2.915,1.454,5.838,1.773,8.726c0.336,2.884,0.277,5.768,0.041,8.556
				c-0.512,5.587-1.994,10.854-4.38,15.521C1577.969,633.078,1569.716,639.932,1559.362,642.396z"/>
		</g>
		<g>
			<path fill="#E991BD" d="M1526.149,696.061c-0.177-1.058-0.31-2.114-0.417-3.165c-0.126-1.048-0.214-2.093-0.267-3.133
				c-0.105-2.081-0.065-4.145,0.109-6.183c0.175-2.038,0.486-4.05,0.924-6.027c0.448-1.979,1.001-3.917,1.631-5.802
				c2.574-7.543,7.105-14.384,13.035-19.696l-170.132,39.438c0,0,0.056,0.237,0.162,0.68c0.096,0.446,0.237,1.1,0.416,1.932
				c0.362,1.664,0.878,4.041,1.498,6.894c0.313,1.426,0.651,2.97,1.01,4.603c0.314,1.643,0.644,3.376,0.986,5.169
				c0.344,1.792,0.699,3.644,1.06,5.526c0.369,1.88,0.743,3.791,1.035,5.717c0.638,3.842,1.276,7.684,1.874,11.286
				c0.507,3.617,0.98,6.994,1.385,9.888c0.416,2.892,0.757,5.304,0.921,7.003c0.192,1.695,0.301,2.663,0.301,2.663l173.44-20.464
				c-3.679-1.494-7.118-3.475-10.282-5.855c-3.209-2.375-6.116-5.152-8.633-8.262c-1.258-1.556-2.419-3.195-3.471-4.911
				c-1.044-1.717-1.993-3.509-2.879-5.363C1528.117,704.285,1526.852,700.292,1526.149,696.061z"/>
			<path fill="#3F136D" d="M1574.949,730.049c-5.285,0.623-10.453,0.056-15.267-1.447c-2.41-0.751-4.72-1.739-6.934-2.931
				c-2.235-1.189-4.358-2.585-6.339-4.162c-3.962-3.155-7.355-7.033-9.948-11.469c-2.685-4.424-4.617-9.4-5.512-14.816
				c-0.423-2.713-0.679-5.389-0.662-8.028c0.018-2.639,0.291-5.238,0.798-7.773c0.495-2.532,1.273-5.008,2.175-7.374
				c0.904-2.366,2.024-4.641,3.341-6.793c5.262-8.594,13.679-15.303,24.014-17.711c10.395-2.422,20.782,0.041,29.28,6.264
				c2.122,1.553,4.123,3.337,5.97,5.328c1.85,1.991,3.454,4.206,4.918,6.592c1.452,2.388,2.716,4.957,3.757,7.676
				c1.041,2.719,1.879,5.585,2.353,8.586c0.997,5.996,0.891,11.888-0.21,17.361c-1.192,5.487-3.334,10.547-6.25,14.898
				c-1.457,2.176-3.108,4.176-4.931,5.968c-1.843,1.795-3.874,3.385-6.036,4.737
				C1585.136,727.665,1580.235,729.426,1574.949,730.049z"/>
		</g>
		<g>
			<path fill="#AB2B3D" d="M1535.692,779.432c-0.269-4.278,0.063-8.452,0.92-12.459c0.448-2.005,0.949-3.963,1.586-5.872
				c0.637-1.909,1.398-3.768,2.273-5.567c1.75-3.598,3.956-6.959,6.546-9.997c2.535-3.032,5.446-5.74,8.69-8.027l-173.578,19.26
				c0,0,0.112,0.968,0.307,2.663c0.092,0.848,0.232,1.874,0.342,3.057c0.103,1.184,0.219,2.52,0.346,3.978
				c0.261,2.914,0.565,6.314,0.891,9.957c0.229,3.653,0.474,7.55,0.719,11.446c0.063,0.974,0.127,1.948,0.191,2.918
				c0.035,0.972,0.071,1.941,0.106,2.902c0.072,1.922,0.143,3.814,0.211,5.644c0.072,1.831,0.141,3.6,0.208,5.278
				c0.066,1.678,0.047,3.269,0.075,4.735c0.077,5.867,0.129,9.779,0.129,9.779l174.643-0.298
				c-7.005-3.816-12.938-9.439-17.15-16.192c-2.131-3.378-3.938-7.042-5.185-10.93
				C1536.681,787.823,1536.009,783.708,1535.692,779.432z"/>
			<path fill="#013337" d="M1580.263,818.797c-10.644,0.006-20.333-4.602-27.402-11.764c-1.768-1.794-3.368-3.751-4.787-5.848
				c-1.464-2.096-2.742-4.33-3.807-6.681c-1.065-2.351-1.917-4.818-2.529-7.382c-0.306-1.282-0.553-2.588-0.735-3.917
				c-0.202-1.328-0.364-2.676-0.447-4.045c-0.354-5.475,0.42-10.756,2.02-15.669c1.526-4.906,3.956-9.449,7.103-13.416
				c1.574-1.983,3.327-3.822,5.236-5.485c1.878-1.66,3.912-3.145,6.088-4.421c4.351-2.552,9.257-4.272,14.547-4.859
				c5.289-0.588,10.462,0.02,15.29,1.679c2.414,0.829,4.744,1.919,6.955,3.25c2.18,1.333,4.239,2.907,6.15,4.696
				c3.822,3.577,7.05,8.018,9.45,13.089c2.325,5.073,3.743,10.779,4.129,16.834c0.091,1.514,0.126,3.013,0.073,4.494
				c-0.073,1.481-0.211,2.943-0.412,4.382c-0.402,2.877-1.053,5.658-1.93,8.306c-0.876,2.649-1.978,5.166-3.279,7.516
				c-1.346,2.351-2.897,4.535-4.614,6.523C1600.492,814.042,1590.906,818.791,1580.263,818.797z"/>
		</g>
	</g>
</g>
</svg>
